<svg width="160" height="96" viewBox="0 0 160 96" fill="none" xmlns="http://www.w3.org/2000/svg">
<g opacity="0.7">
<path d="M37.8231 25.0378H67.9507V27.4235H40.5854V45.3772H66.3186V47.7629H40.5854V67.4745H68.2643V69.8602H37.8231V25.0378ZM70.6492 25.0378H73.8507L88.0358 44.7493L102.534 25.0378L122.255 0L89.8561 46.8211L106.551 69.8602H103.224L88.0358 48.8929L72.7843 69.8602H69.5201L86.3409 46.8211L70.6503 25.0378H70.6492ZM107.744 27.4235V25.0378H142.076V27.4235H126.26V69.8591H123.498V27.4235H107.746H107.744ZM0.132996 25.0378H3.58542L51.1872 96L31.5152 69.8602L3.01975 28.4277L2.89429 69.8602H0.132996V25.0378ZM141.799 66.7541C141.234 66.7541 140.811 66.3187 140.811 65.7564C140.811 65.193 141.234 64.7576 141.798 64.7576C142.369 64.7576 142.786 65.193 142.786 65.7564C142.786 66.3187 142.369 66.7541 141.798 66.7541H141.799ZM144.512 64.1276H145.99C146.011 64.9253 146.596 65.4607 147.455 65.4607C148.415 65.4607 148.959 64.8856 148.959 63.8061V56.9725H150.464V63.8126C150.464 65.7564 149.336 66.8756 147.468 66.8756C145.716 66.8756 144.513 65.7897 144.513 64.1276H144.512ZM152.431 64.0416H153.923C154.05 64.9587 154.95 65.5414 156.247 65.5414C157.455 65.5414 158.342 64.9178 158.342 64.0609C158.342 63.3245 157.779 62.8815 156.495 62.5805L155.246 62.2794C153.493 61.8709 152.693 61.0258 152.693 59.6056C152.693 57.8832 154.103 56.7371 156.219 56.7371C158.187 56.7371 159.626 57.8832 159.713 59.5109H158.248C158.107 58.6207 157.329 58.0638 156.2 58.0638C155.01 58.0638 154.218 58.6336 154.218 59.5045C154.218 60.1947 154.729 60.5904 155.992 60.885L157.059 61.1462C159.047 61.6085 159.867 62.4127 159.867 63.8663C159.867 65.7156 158.429 66.8756 156.132 66.8756C153.983 66.8756 152.538 65.7693 152.431 64.0405V64.0416Z" fill="black"/>
</g>
</svg>
