<svg id="Camada_1" data-name="Camada 1" xmlns="http://www.w3.org/2000/svg" xmlns:xlink="http://www.w3.org/1999/xlink" viewBox="0 0 2054.66 794.59"><defs><style>.cls-1{fill:none;}.cls-2{clip-path:url(#clip-path);}.cls-3{opacity:0.5;}.cls-4{fill:#6665dd;}.cls-5{fill:#efefef;}</style><clipPath id="clip-path" transform="translate(1.01)"><rect class="cls-1" width="2051.64" height="929.61"/></clipPath></defs><title>background</title><g class="cls-2"><g id="Caminho_1" data-name="Caminho 1"><g class="cls-3"><path class="cls-4" d="M-1,736.63c310,152.27,823.21-37,1239.78-95.72s813.87,58.67,813.87,58.67l-2-667.78H-1Z" transform="translate(1.01)"/></g><path class="cls-5" d="M271.37,770.55l-2.8-.08c-3.78-.11-7.58-.25-11.31-.4l-2.81-.11.32-3.69,2.62.1q5.88.24,11.8.42l2.4.07Zm-22.62-.86-2.8-.14c-3.77-.2-7.57-.42-11.29-.66l-2.8-.18.51-3.67,2.53.16c3.93.25,7.86.48,11.82.68l2.44.13Zm-22.58-1.37-2.79-.22c-3.76-.28-7.55-.59-11.26-.92l-2.78-.25.71-3.66,2.57.22c2,.19,4.08.36,6.13.53h0l.3,0h.1l.23,0h.12l.19,0H220l.2,0h.08l3.69.29,2.79.22Zm-22.51-1.93-2.78-.29c-3.74-.38-7.51-.79-11.2-1.22l-2.77-.32.94-3.64,2.77.32q3.88.45,7.8.87h.07l.21,0h.13l.17,0,.22,0h.08l2.76.29,2.43.25Zm-22.39-2.52-2.76-.36c-3.72-.49-7.46-1-11.13-1.53l-2.74-.4,1.17-3.61,2.52.36q5.74.84,11.53,1.59l2.47.32ZM159,760.72l-2.73-.44c-3.68-.59-7.39-1.21-11-1.85l-2.71-.48,1.42-3.57,2.46.43q2.84.51,5.69,1h0l.32.05h0l.3,0h0l.32.06h0l.67.11h0l.31,0h.06l.27.05h.06l.28,0h0l3,.49,2.47.39Zm-22-3.8-2.7-.52c-3.64-.7-7.3-1.44-10.88-2.2l-2.68-.56,1.68-3.52,2.47.52c2.86.6,5.72,1.19,8.6,1.75h0l.32.06h0l1,.2h.09l.22.05.13,0,.18,0,.16,0,.13,0,.13,0,2.7.52Zm-21.73-4.48-2.66-.61c-3.58-.82-7.19-1.68-10.71-2.55l-2.64-.65,2-3.46,2.63.65.86.21h0l.2.05.14,0,.14,0,.22.06h.07q4.56,1.11,9.15,2.16l2.42.56Zm-21.38-5.19-2.61-.7c-3.52-.93-7-1.91-10.52-2.9l-2.57-.74,2.21-3.39,2.58.74,1.82.52.08,0,.16,0,.15,0,.13,0,.19.06.1,0,.25.06,0,0q3.84,1.08,7.7,2.1l2.37.63Zm-21-5.91-2.55-.78c-3.43-1.06-6.89-2.16-10.27-3.27l-2.52-.83,2.49-3.31,2.52.83h0c2.3.76,4.62,1.5,6.94,2.23h0l.27.08.08,0,.21.06.11,0,.18,0,.13,0,.16.05.14,0,.13,0,.36.11.07,0,.21.07.08,0,.21.07.07,0,.22.07h.06l.23.08h0l.22.07,2.55.78Zm-20.47-6.63L50,733.84c-3.34-1.18-6.7-2.4-10-3.63l-2.44-.92,2.75-3.21,2.22.83,3.89,1.45.08,0,.21.08.1,0,.18.06.13.05.15.06.14.05.14,0,.15.05.07,0,.38.14.1,0,.17.06.12,0,.16,0,.12.05.16.06.14,0,.15.06.15.05.13,0,.24.09.06,0,.27.1.08,0,.23.08.06,0,.24.08.06,0,.27.1h0l1.74.62,2.29.8Zm-19.91-7.35-2.41-1c-3.24-1.29-6.5-2.63-9.68-4l-2.37-1,3-3.11,2.07.88,3.57,1.5h0l.25.11.09,0,.18.08.12.05.14.06.16.06.08,0q2.61,1.08,5.25,2.13l2.41,1Zm-19.28-8.05-2.32-1c-3.13-1.41-6.27-2.86-9.34-4.32l-2.29-1.09,3.28-3L4.89,711,5,711,5,711l.18.09h0l1,.47h0l.25.11h0c2.52,1.19,5.06,2.35,7.61,3.5l2.33,1Zm2036.33-44.64-2.69-.54L2036.19,672l-2.7-.52,1.58-3.54,11.2,2.21,2.25.45.5.1,2.19.44Zm-21.5-4.24-2.7-.52-10.79-2.07-2.71-.51,1.53-3.55,6.73,1.28h.07l9.42,1.81Zm-21.56-4.11-2.71-.51-10.8-2-2.71-.5,1.48-3.56,5.57,1,7.28,1.35.09,0,.1,0,3.2.59Zm-21.61-4-2.72-.49c-3.59-.65-7.23-1.3-10.83-1.93l-2.72-.48,1.43-3.57q8.28,1.46,16.29,2.9Zm-21.68-3.85-2.72-.47-10.86-1.86-2.72-.46,1.37-3.58,2.11.36.61.1,3,.52.13,0,.1,0,10.34,1.78Zm-21.73-3.71-2.72-.45-10.89-1.8-2.73-.44,1.32-3.59,2.29.37.44.08,5.75.94,7.89,1.31Zm-21.78-3.57-2.73-.44-10.91-1.73-2.73-.43,1.27-3.59,7,1.09.2,0h0l3.7.59,5.49.88Zm-21.82-3.44-2.74-.42-10.93-1.67-2.74-.41,1.22-3.6c5.53.83,11,1.66,16.44,2.5Zm-21.87-3.31-2.75-.4-11-1.6-2.75-.39,1.17-3.61,9.45,1.36.09,0,.13,0,.27,0h.06l3.73.55.15,0,2.59.39Zm-21.92-3.17-2.75-.38c-3.65-.52-7.34-1-11-1.53l-2.76-.38,1.12-3.61,2.11.29.64.08,1.38.19h.1l7.65,1.06h.19l1.69.24.41.06,2.34.33Zm-22-3-2.76-.37-11-1.45-2.76-.36,1.06-3.62,2.36.3.4.06,1.65.21,12.13,1.61Zm-22-2.88-2.76-.35c-3.66-.47-7.36-.93-11-1.38l-2.77-.34,1-3.64,7.72,1,.13,0h.12l.29,0h.06l5.48.69.29,0,2.47.32Zm-22-2.74-2.76-.34c-3.67-.44-7.38-.88-11-1.3l-2.77-.32,1-3.64,2.51.29.26,0,1.31.15,8.8,1,.95.12.3,0,2.47.3Zm-22.08-2.6-2.77-.31c-3.68-.42-7.4-.83-11.07-1.23l-2.77-.3.89-3.65,6.82.75h0l.2,0,.15,0,.19,0,.21,0h.1l.29,0h.06l.23,0h.13l.19,0,8.06.91Zm-22.13-2.44-2.77-.29c-3.68-.39-7.4-.78-11.07-1.15l-2.78-.29.83-3.65,9.61,1h0l.18,0,.21,0h.09l.31,0h0l3.46.36h0l2.72.29Zm-22.14-2.28-2.78-.28L1707.9,624l-2.78-.26.77-3.66q8.38.78,16.69,1.61Zm-22.2-2.13-2.78-.25c-3.69-.34-7.43-.67-11.11-1l-2.79-.25.71-3.66c4.52.39,9,.79,13.5,1.2l.38,0,2.83.26Zm-22.21-2-2.79-.23c-3.7-.31-7.44-.62-11.12-.91l-2.79-.22.64-3.67,2.41.19.38,0,11.15.91.52,0,2.27.19Zm-22.25-1.79-2.79-.21c-3.71-.28-7.46-.56-11.14-.82l-2.8-.2.58-3.68,8.67.63.22,0,.31,0,.56,0h0l4.16.32.48,0,2.32.18Zm-22.28-1.62-2.8-.19-11.14-.73-2.8-.18.5-3.67,2.53.16h.27l2.77.18h.09l.49,0,.39,0h.06l6.26.41.28,0h.21l.63.05h.18l2.61.18Zm-22.3-1.44-2.8-.16c-3.71-.22-7.47-.44-11.16-.64l-2.8-.16.44-3.68,4.45.25h.24l.4,0,.38,0,.25,0,.47,0,.22,0,.51,0h.18l.49,0,.23,0,.44,0,.28,0,.4,0,.36,0,.26,0,7.23.42Zm-22.33-1.25-2.8-.14c-3.71-.19-7.47-.38-11.17-.55l-2.8-.13.36-3.68,8.11.38h.06l.47,0h.17l.53,0h.27l.45,0h.17l6.58.34Zm-22.34-1.06-2.8-.12c-3.72-.16-7.48-.31-11.18-.45l-2.8-.1.28-3.69,2.41.09h.4l2,.08h.54l5.37.21.31,0h.35l.41,0h.21l.53,0h.14l.59,0h.11l.59,0,2.85.12Zm-22.35-.87-2.81-.09c-3.72-.12-7.48-.24-11.19-.34l-2.8-.08.21-3.69c3.69.1,7.35.2,11,.32h.57l2.43.08h.36l2.44.08Zm-22.37-.66-2.81-.06c-3.72-.09-7.49-.17-11.19-.24l-2.8-.06.12-3.69,2.36,0h.45l1.6,0,12.43.28Zm-22.38-.45-2.81,0c-3.72,0-7.49-.09-11.19-.12l-2.81,0,0-3.69,2.79,0h.56c4.51,0,9,.09,13.5.16Zm-39.18-.25,0-3.69q8.43,0,16.85,0v3.69h-2.81c-3.72,0-7.49,0-11.19,0Zm-22.37.18-.14-3.7,2.9,0h.64l5.57-.06h1.21l6.53,0,.09,3.69-2.81,0c-3.73,0-7.49.06-11.19.1Zm-22.36.41-.23-3.69q8.41-.19,16.84-.34l.18,3.7-2.81,0c-3.72.06-7.48.13-11.18.22Zm-22.34.67-.33-3.69,2.87-.1h.17c3.23-.11,6.45-.22,9.68-.31h.7l.6,0h.21l2.6-.07.28,3.69-2.81.08c-3.72.1-7.47.22-11.17.35Zm-22.31.93-.43-3.68c3.42-.17,6.85-.32,10.27-.46h1.32l2.42-.1h.3l2.5-.1.37,3.69-2.8.11c-3.71.15-7.46.31-11.15.48Zm-22.27,1.2-.54-3.68c5.6-.33,11.18-.64,16.78-.93l.48,3.68-2.79.15c-3.71.2-7.46.4-11.14.62Zm-22.23,1.49-.64-3.68,2.86-.2.22,0h.2l.38,0h.2l.25,0h.14l.94-.07h0l.33,0h0l1-.07h0l7.31-.49h.19l2.61-.17.58,3.67-2.79.19c-3.7.24-7.44.49-11.11.76Zm-22.17,1.77-.76-3.66,2.71-.24h.08l.89-.08.22,0h.16l.38,0h0c2.9-.25,5.79-.48,8.69-.71h0l.43,0,.32,0h0l.19,0,2.57-.2.7,3.67-2.79.22c-3.69.29-7.42.59-11.08.9Zm-22.1,2.08-.87-3.65q8.31-.84,16.65-1.6L1298,619l-2.78.26c-3.68.33-7.4.69-11,1Zm-22,2.39-1-3.63,2.63-.31h.14l.47-.06.37,0h0c2.85-.33,5.72-.64,8.57-.95l.12,0,.23,0,1.28-.14.38,0,2.39-.25.93,3.64-2.76.3c-3.67.39-7.37.8-11,1.22Zm-21.93,2.73-1.12-3.63.42-.05q8-1.07,16.11-2l1.06,3.63-2.76.34c-3.65.44-7.34.91-11,1.38Zm-21.88,3-1.2-3.61c3.44-.49,6.91-1,10.34-1.44l.22,0,.13,0,3.05-.42.46-.06,2.29-.31,1.17,3.62-2.75.37-11,1.51Zm-21.84,3.18-1.27-3.6,2-.31.71-.1,3.4-.51h.09l.21,0,10-1.46,1.24,3.61-2.74.4-10.94,1.6ZM1172,635.22l-1.33-3.59c4.39-.7,8.77-1.37,13.15-2l.46-.07.15,0h.09l2.55-.39,1.3,3.6-2.73.42c-3.59.54-7.26,1.11-10.91,1.68Zm-21.74,3.51-1.38-3.59,2.5-.41.22,0,10.91-1.77.75-.12,2-.31,1.36,3.59-2.73.44c-3.58.57-7.24,1.16-10.88,1.76Zm-21.68,3.64-1.44-3.58,2.12-.36.6-.1c2.71-.47,5.43-.93,8.14-1.38h0l.62-.1.18,0,.37-.06.32-.06h.09l3.84-.64,1.41,3.58-2.72.45-10.86,1.83Zm-21.64,3.76-1.49-3.57,2.4-.42.31-.06,8.76-1.53.13,0,.18,0,4.5-.78,1.46,3.57-2.71.47-10.84,1.89ZM1085.32,650l-1.52-3.56,2.12-.39.59-.1,1.3-.24.11,0,.37-.07,11.76-2.1,1.5,3.56-2.71.48-10.81,2Zm-21.56,4-1.56-3.55c4.13-.77,8.23-1.53,12.35-2.28l1.16-.22.49-.09,2.21-.4L1080,651l-2.7.49-10.79,2Zm-21.54,4-1.58-3.55,16.18-3.05,1.57,3.56-2.7.5-10.77,2Zm-21.5,4.13-1.61-3.55,1.63-.32,1.06-.2,9.33-1.79,4.13-.79,1.6,3.55-2.69.51-10.76,2.07Zm-21.49,4.18-1.63-3.54,4.31-.85,9.13-1.78,1-.2,1.66-.32,1.62,3.54-2.69.53-10.74,2.09Zm-21.46,4.23L976.12,667l2.1-.41.58-.12,4.63-.91.31-.06.12,0,4.65-.92.3-.06h.07l.67-.13.62-.12,2.06-.41,1.64,3.54-2.68.53L980.45,670Zm-21.45,4.28-1.67-3.54,2.67-.53h0l10.6-2.12,2.81-.56,1.66,3.54-2.69.53L959,674.29Zm-21.44,4.3-1.68-3.53,1.53-.31,1.15-.23,2.61-.52.2,0,1.06-.22.31-.06,6.55-1.32.9-.18,1.78-.35L951,675.9l-2.68.54-10.72,2.15Zm-21.44,4.33-1.68-3.53,2.21-.45.47-.09.72-.15,6.16-1.24,1.14-.23.08,0,1-.2,4.32-.87,1.68,3.53-2.68.55-10.72,2.16ZM892,687.8l-1.68-3.53L906.4,681l1.68,3.54-2.68.54-10.71,2.17Zm-21.44,4.35-1.68-3.54,2.68-.54.52-.1,7.38-1.5,2.82-.57.34-.07,2.34-.47,1.68,3.53-2.68.54-10.72,2.17Zm-21.44,4.33L847.45,693l2.68-.54,3-.6,2.31-.47.25-.05.84-.17.65-.13,1-.2h0L862,690l1.51-.3,1.68,3.53-2.68.54-10.72,2.17Zm-21.45,4.33L826,697.27l2.68-.54,6.09-1.22.13,0,.72-.14,5.29-1.07,1.17-.24,1.68,3.54-2.68.54-10.73,2.16Zm-21.47,4.3-1.66-3.54,1.59-.32,6.2-1.24,5.63-1.12,2.68-.54,1.66,3.53-2.68.54-10.73,2.15Zm-21.48,4.26-1.65-3.54,2.51-.49,4.19-.83h0l1-.2,5.67-1.13,2.69-.53,1.65,3.54-2.68.53-10.75,2.13Zm-21.51,4.23-1.63-3.55,2.69-.52,3.76-.74.2,0,.12,0,5.27-1,.17,0,.14,0,1.08-.21,2.69-.53,1.64,3.54-2.69.53-10.75,2.11Zm-21.54,4.17-1.61-3.55,1.82-.35,5.55-1.07h.07l.48-.1,5.53-1.07,2.69-.52,1.62,3.55-2.69.52-10.77,2.08Zm-21.57,4.11-1.58-3.55,2.69-.51L732,715.77l2.69-.52,1.59,3.55-2.69.52-10.78,2Zm-21.6,4L697,722.36l2.23-.41,12.16-2.27,1.79-.34,1.57,3.56-2.7.5-10.8,2Zm-21.64,4-1.52-3.56,2-.37,4.69-.85h.06l.62-.11.13,0,.46-.08.23,0,.4-.07.39-.07.3-.06.32-.06.28,0,.41-.07.38-.07.29-.06.35-.06.2,0,.59-.11h.09l.6-.11h0l.81-.14,2.56-.47,1.54,3.56-2.7.49-10.82,2Zm-21.69,3.87-1.48-3.57,2.06-.37,5.26-.93.35-.06.1,0,5.75-1,2.71-.48,1.5,3.56-2.7.49-10.84,1.92Zm-21.73,3.76L632,733.92l2.37-.41c3.9-.66,7.84-1.34,11.75-2l2.15-.37,1.46,3.57-2.71.47L636.16,737Zm-21.79,3.64-1.4-3.59,2.72-.44,1.55-.26,10.11-1.69,1.92-.32,1.42,3.58-2.72.46-10.88,1.81Zm-21.84,3.51-1.35-3.59,2.73-.43.81-.13.52-.08h.05l9.88-1.58,2.34-.38,1.38,3.59-2.73.44-10.91,1.74ZM567.91,748l-1.29-3.61,2.2-.33c4-.6,7.91-1.2,11.89-1.82l2.29-.35,1.32,3.6-2.73.42-10.94,1.67Zm-22,3.21-1.23-3.61,2.33-.33c4-.58,8-1.16,12.07-1.76l2-.3,1.26,3.61-2.74.4-11,1.6Zm-22,3-1.16-3.62,2.75-.37.39,0h0l1.32-.18h.09l.42-.06h0l.82-.11h.09l.42-.06h.06l.8-.1.11,0,.4,0,.13,0,.67-.09.21,0,.33-.05.31,0,.36,0,.45-.06.17,0,4-.55,2.09-.29,1.2,3.61-2.75.39-11,1.5Zm-22.09,2.86-1.08-3.63,2-.25c4.16-.52,8.29-1,12.46-1.6l2.06-.26,1.12,3.62-2.75.36c-3.68.48-7.4,1-11,1.41Zm-22.16,2.65-1-3.64,2.15-.25L493,754.46l2.23-.27,1.05,3.64-2.76.33-11.07,1.31Zm-22.23,2.42-.91-3.65,2.06-.22q6.17-.65,12.35-1.33l2.18-.24,1,3.65-2.77.3c-3.7.41-7.44.82-11.1,1.2Zm-22.29,2.18-.82-3.66,2.23-.21c4.09-.38,8.2-.78,12.3-1.18l2.1-.21.87,3.65-2.77.28c-3.72.37-7.46.73-11.13,1.07Zm-22.37,1.91-.72-3.67,2.51-.2c4-.32,8-.66,11.95-1l2.22-.2.77,3.67-2.78.24c-3.73.32-7.48.64-11.16.93Zm-22.43,1.62-.61-3.68,2.45-.16c3.91-.26,7.88-.54,11.81-.83l2.47-.19.66,3.68-2.79.2c-3.74.28-7.51.54-11.2.79Zm-22.5,1.3-.48-3.68,2.38-.13c4.07-.21,8.13-.44,12.21-.68l2.18-.13.54,3.68-2.79.17-11.24.63Zm-22.55,1-.34-3.69,2.16-.08c4.13-.15,8.3-.31,12.45-.5l2.2-.1.41,3.69-2.8.12c-3.76.17-7.56.32-11.27.46Zm-22.59.59-.2-3.69,2.66-.06c3.75-.07,7.53-.16,11.3-.26h.25l2.63-.08.28,3.7-2.81.08-11.3.27Zm-22.62.18,0-3.69h2.25q6.1,0,12.25-.07l2.36,0,.12,3.7-2.8,0c-3.79,0-7.6.07-11.33.07Zm-11.69-.07h0c-2.85,0-5.7-.07-8.51-.13l-2.81,0,.13-3.69,2.29,0c3.2.06,6.42.11,9.64.15H292l2.46,0,0,3.69Z" transform="translate(1.01)"/></g><path class="cls-4" d="M0,704.83c309.94,152.28,823.21-37,1239.78-95.72s813.87,58.67,813.87,58.67L2051.64,0H0Z" transform="translate(1.01)"/></g></svg>