<?xml version="1.0" encoding="utf-8"?>
<!-- Generator: Adobe Illustrator 24.0.2, SVG Export Plug-In . SVG Version: 6.00 Build 0)  -->
<svg version="1.1" id="Ñëîé_4" xmlns="http://www.w3.org/2000/svg" xmlns:xlink="http://www.w3.org/1999/xlink" x="0px" y="0px"
	 viewBox="0 0 2000 2000" style="enable-background:new 0 0 2000 2000;" xml:space="preserve">
<style type="text/css">
	.st0{fill:#171515;}
	.st1{fill:#FFFFFF;}
</style>
<title>samurai</title>
<path class="st0" d="M593.5,826.5c0,0-144.7-33.1-169.5-103.3l49.6,20.7l28.9-70.3c0,0-107.5-33.1-177.7,57.9
	S188.4,971.2,188.4,971.2S238,1058,329,1091s152.9,41.3,152.9,41.3L593.5,826.5z"/>
<path class="st1" d="M484.9,1137.3l-3.5-0.5c-0.6-0.1-63.5-8.7-153.9-41.6C236,1062,186.6,977,184.6,973.4l-1.1-2l0.9-2.1
	c0.7-1.5,67.2-150.3,137-240.6c41.8-54.1,96.4-65.5,134.9-65.5c27.6,0,46.9,5.8,47.7,6.1l4.7,1.4l-32.6,79l-43.3-18.1
	c33.2,60.5,160.4,90.2,161.8,90.5l4.9,1.1L484.9,1137.3z M193.5,970.9c7.9,12.8,56.2,86.6,137,116c77.3,28.1,134.1,38.3,148.5,40.6
	l108.7-297.8c-26.2-6.6-144.8-39.8-167.8-105l-3.3-9.5l54.7,22.8l25.3-61.4c-13.2-3-26.7-4.5-40.3-4.4c-36.5,0-88.3,10.8-127.8,62
	C263.7,817.8,201.8,952.4,193.5,970.9z"/>
<path class="st1" d="M556.3,847.2c0,0-140.5-49.6-173.6-99.2L233.9,971.2l99.2-107.5l-86.8,136.4c0,0,151.1,82.3,225.5,82.3l1.9-12
	c0,0-140.5-37.2-177.7-66.1l90.9-181.9l-28.9,16.5l28.9-49.6C386.8,789.3,469.5,847.2,556.3,847.2z"/>
<path class="st0" d="M229.8,1024.9l-74.4,177.7c0,0,124,107.5,248,124l78.5-194.3C481.9,1132.4,291.8,1078.6,229.8,1024.9z"/>
<path class="st1" d="M406.2,1331.5l-3.4-0.5c-123.9-16.5-249.1-124-250.3-125l-2.4-2.1l78-186.4l4.7,4
	c60.6,52.5,248.5,106,250.4,106.6l4.8,1.3L406.2,1331.5z M160.7,1201.3c17.8,14.8,129.2,104.1,239.8,120.4l75.4-186.4
	c-29.8-8.7-183.4-54.9-244.4-103.1L160.7,1201.3z"/>
<path class="st0" d="M1406.5,826.5c0,0,144.7-33.1,169.5-103.3l-49.6,20.7l-28.9-70.3c0,0,107.5-33.1,177.7,57.9
	s136.4,239.7,136.4,239.7S1762,1058,1671,1091s-152.9,41.3-152.9,41.3L1406.5,826.5z"/>
<path class="st1" d="M1514,1139.2L1398.2,822l6.9-1.6c1.3-0.3,121.5-28.4,157.9-85.1l-40,16.7l-33.9-82.4l6.6-2
	c0.8-0.3,20.3-6.1,48.2-6.1c38.9,0,94.1,11.5,136.3,66.2c69.9,90.5,136.5,239.5,137.2,241l1.3,2.9l-1.6,2.8
	c-2.1,3.6-51.8,89.2-143.8,122.6c-90.5,32.9-153.6,41.6-154.2,41.7L1514,1139.2z M1414.8,830.9l107.5,294.5
	c16.3-2.7,71.9-13.1,146.7-40.2c78.9-28.7,126.5-99.8,135.6-114.4c-9.7-21.4-70.7-153.2-134.3-235.5
	c-57.3-74.1-140.2-62.6-164.3-57.4l23.8,57.8l56.8-23.7l-4.7,13.3C1559.1,789.7,1444.5,823.2,1414.8,830.9L1414.8,830.9z"/>
<path class="st1" d="M1443.7,847.2c0,0,140.5-49.6,173.6-99.2l148.8,223.2l-99.2-107.5l86.8,136.4c0,0-151.1,82.3-225.5,82.3
	l-1.9-12c0,0,140.5-37.2,177.7-66.1l-90.9-181.9l28.9,16.5l-28.9-49.6C1613.2,789.3,1530.5,847.2,1443.7,847.2z"/>
<path class="st0" d="M1770.2,1024.9l74.4,177.7c0,0-124,107.5-248,124l-78.5-194.3C1518.1,1132.4,1708.2,1078.6,1770.2,1024.9z"/>
<path class="st1" d="M1593.8,1331.5l-81.7-202.1l4.8-1.3c1.9-0.5,189.9-54.1,250.4-106.5l4.7-4l78,186.4l-2.4,2.1
	c-1.3,1.1-126.4,108.5-250.3,125L1593.8,1331.5z M1524.1,1135.3l75.4,186.4c110.6-16.3,222-105.6,239.8-120.4l-70.8-169.2
	C1707.5,1080.4,1553.9,1126.6,1524.1,1135.3L1524.1,1135.3z"/>
<path class="st1" d="M239.9,1071.5l-49.4,120.7l46.6-52.1l-24.7,71.3c0,0,46.6,43.9,104.2,65.8s90.5,19.2,90.5,19.2l27.4-96
	c0,0-74-13.7-126.1-46.6c0,0,32.9,49.4,82.3,63.1c0,0-82.3-13.7-120.7-43.9l30.2-79.5l-35.6,49.4l11-60.3L239.9,1071.5z"/>
<path class="st1" d="M1756.3,1071.5l49.4,120.7l-46.6-52.1l24.7,71.3c0,0-46.6,43.9-104.2,65.8s-90.5,19.2-90.5,19.2l-27.4-96
	c0,0,74-13.7,126.2-46.6c0,0-32.9,49.4-82.3,63.1c0,0,82.3-13.7,120.7-43.9l-30.2-79.5l35.7,49.4l-11-60.3L1756.3,1071.5z"/>
<path class="st0" d="M1754.9,1556.8c-12.4-29.6-57.1-57.5-112.9-79.8c-113.7-45.5-351.8-55.8-647.8-55.8c-301.5,0-508.1,0-631,50.3
	c-64.8,26.5-106.1,61.4-118.5,85.4c-29.9,57.9-26.7,259.3-26.7,259.3s86.7-83.1,200-118.4c105.4-32.8,525.3-55.4,583.4-58.4
	c57.7,3,474.7,25.6,580.1,58.4c113.3,35.2,200,118.4,200,118.4S1780.1,1616.9,1754.9,1556.8z"/>
<path class="st1" d="M1787.9,1830.8l-10.7-10.2c-0.9-0.8-87-82.5-197.6-116.9c-105.1-32.7-528.6-55.5-578.2-58.1
	c-50,2.6-476.5,25.4-581.5,58.1c-110.6,34.4-196.7,116.1-197.6,116.9l-10.3,9.9l-0.2-14.3c-0.1-8.3-2.9-203.7,27.4-262.3
	c11.7-22.6,50.5-59.2,121.7-88.3c124-50.7,326.6-50.7,633.4-50.7c251.9,0,526.1,6.7,650.1,56.3c44.7,17.9,101.1,46.8,116.4,83.2
	c25.4,60.5,27.1,253.5,27.2,261.7L1787.9,1830.8z M994.2,1427.3c-305.3,0-506.9,0-628.6,49.8c-63.7,26-103.8,60.2-115.3,82.5
	c-24.4,47.2-26.1,196.3-26.1,242.6c26.6-23,101.2-82.2,192-110.4c106.8-33.2,536.3-56.2,584.9-58.7h0.3h0.3
	c48.3,2.5,474.9,25.5,581.6,58.7c90.4,28.1,164.8,87,191.7,110.2c-0.9-46.5-5.4-193.7-26-242.8c-10.6-25.3-49.5-52.5-109.5-76.4
	C1517.6,1433.9,1244.9,1427.3,994.2,1427.3z"/>
<path class="st0" d="M1668.7,1333.4c-11-29.6-50.4-57.5-99.6-79.8c-100.3-45.5-310.3-55.8-571.4-55.8c-266,0-448.2,0-556.6,50.3
	c-57.1,26.5-93.6,61.4-104.5,85.4c-26.4,57.9-23.6,259.3-23.6,259.3s76.5-83.1,176.4-118.4c93-32.8,463.3-55.4,514.6-58.4
	c50.9,3,418.7,25.6,511.7,58.4c100,35.2,176.4,118.4,176.4,118.4S1690.9,1393.5,1668.7,1333.4z"/>
<path class="st1" d="M1698.5,1608.9l-10.9-11.9c-0.8-0.8-76.6-82.4-173.9-116.7c-92.5-32.6-465.4-55.4-509.6-58
	c-44.5,2.6-420,25.4-512.5,58c-97.4,34.3-173.2,115.9-173.9,116.7l-10.6,11.5l-0.2-15.7c-0.1-8.3-2.6-203.5,24.1-262
	c10.3-22.6,44.7-59.3,107.6-88.5c109.6-50.8,288.5-50.8,559.2-50.8c222.3,0,464.3,6.7,574,56.4c39.5,17.9,89.4,46.9,102.9,83.4
	c22.4,60.4,23.9,253.3,23.9,261.4L1698.5,1608.9z M997.7,1204c-269.1,0-446.9,0-554,49.7c-56,26-91.3,60.1-101.5,82.4
	c-21.4,46.9-23.1,193.8-23,241.5c24.6-24,88.6-81,168.2-109.1c92.4-32.6,446.3-54.6,516.3-58.7h0.4h0.4
	c69.5,4.1,421,26.2,513.4,58.7c79.3,28,143.1,84.6,167.9,108.8c-0.8-47.9-4.9-193-22.9-241.7c-9.4-25.3-43.6-52.4-96.3-76.3
	C1459,1210.6,1218.7,1204,997.7,1204z"/>
<path class="st0" d="M1571.5,1094.3c-9.4-37.1-43.2-72.1-85.5-100.2c-86.1-57.1-266.3-70-490.4-70c-228.3,0-384.7,0-477.7,63
	c-49,33.2-80.3,77.1-89.7,107.2c-22.7,72.6-20.2,269.5-20.2,269.5s65.6-55.9,151.4-100.1c79.8-41.1,397.7-69.5,441.7-73.3
	c43.7,3.8,359.4,32.1,439.2,73.3c85.8,44.2,151.4,100.1,151.4,100.1S1590.6,1169.7,1571.5,1094.3z"/>
<path class="st1" d="M1598,1377.4l-10.4-8.8c-0.7-0.6-66.1-56-150.3-99.3c-78.8-40.6-397.5-69.2-436.3-72.5
	c-39.1,3.3-360,31.9-438.8,72.5c-84.1,43.3-149.6,98.7-150.2,99.3l-10.1,8.6l-0.2-13.3c-0.1-8.1-2.2-198.7,20.5-271.4
	c8.8-28.1,38.2-73.8,92.2-110.5c94.6-64.1,248.4-64.1,481.2-64.1c127.8,0,222.4,4.3,297.7,13.7c90.6,11.2,154.8,30,196.1,57.4
	c33.9,22.5,76.7,58.7,88.1,103.8c19.1,75.3,20.3,263,20.4,271L1598,1377.4z M995.6,930.4c-230.5,0-382.8,0-474.2,62
	c-48.1,32.6-78.5,75.6-87.3,103.9c-18.8,60.1-20,209.6-20,254.5c21.9-17.3,76.5-58.6,142.4-92.6c79.7-41,383.8-68.8,444-73.9h0.5
	h0.5c59.8,5.1,361.9,32.9,441.5,73.9c65.7,33.8,120.2,74.9,142.2,92.4c-0.7-45-4-192.3-19.8-254.7c-8.2-32.2-37.6-66.5-82.9-96.5
	C1390.8,938.6,1184.9,930.4,995.6,930.4L995.6,930.4z"/>
<path class="st0" d="M542.8,1233.4c0,0,92.4-49.3,134.3-104.3c28.9-37.9,92.1-57.6,173.1-15.7s94.9,57.6,159.1,57.6
	c72.6,0,156.8-96.8,226.1-89c33,3.7,78.2,34.5,117.3,70.7c43.6,40.3,81.5,86.4,125.6,86.4l-23.9-172.8L928.3,927.6l-339.7,65.6
	l-67.9,170L542.8,1233.4z"/>
<path class="st1" d="M416.1,1464.3c-11.4,6-22.3,12.7-32.9,20.1c-13.3,16.8-18.4,27.6-18.4,27.6l-10.7-1.2c-0.5,0.6-0.9,1.3-1.3,1.9
	c0,0,0.1-0.7,0.4-2l-9.7-1.1c5.4-8.9,11.5-17.3,18-25.4c4.8-12.1,11.9-25.6,21.7-35.4c28.2-28.2,54.6-38.5,78.2-49.6
	c0,0-45.9,6.2-75.7,29.8c-8.1,6.5-16.5,15.3-22.9,22.7l-4.4,24.4l-12.4,1.2c0-1.4,2.6-14.7,6.7-32.3l9.4-114.7
	c0,0-16.8,31.6-20.5,100.5s-3.7,109.8-3.7,109.8s50.3-50.3,102.4-70.7s78.2-24.2,78.2-24.2S468.2,1436.4,416.1,1464.3z"/>
<path class="st1" d="M358.4,1476.1l4.4-24.4l16.7-93.4c-9.9,19.8-20.3,58.8-26.8,86.8c-4.1,17.6-6.7,30.9-6.7,32.3L358.4,1476.1z"/>
<path class="st1" d="M353.3,1510.7l0.8,0.1l10.7,1.2c0,0,5.1-10.8,18.4-27.6c13.7-17.3,36.1-40.8,70.7-65.4c0,0-51.9,25.6-73.2,44.7
	c-6.9,6.3-13.3,13.2-19.2,20.5c-6.5,8.1-12.6,16.6-18,25.4L353.3,1510.7z"/>
<path class="st1" d="M310.9,1695.1c-9.8,5.2-19.3,11-28.4,17.3c-11.5,14.4-15.9,23.8-15.9,23.8l-9.3-1c-0.4,0.5-0.8,1.1-1.1,1.7
	c0,0,0.1-0.6,0.4-1.7l-8.4-0.9c4.7-7.6,9.9-15,15.5-21.9c4.2-10.4,10.3-22.1,18.7-30.5c24.3-24.3,47.1-33.2,67.4-42.8
	c0,0-39.6,5.3-65.3,25.7c-7,5.6-14.2,13.2-19.8,19.6l-3.8,21.1l-10.7,1.1c0-1.2,2.2-12.7,5.8-27.9l8.1-98.9c0,0-14.4,27.3-17.7,86.7
	s-3.2,94.7-3.2,94.7s43.3-43.3,88.3-61s67.4-20.9,67.4-20.9S355.8,1671,310.9,1695.1z"/>
<path class="st1" d="M261.1,1705.3l3.8-21.1l14.4-80.6c-8.5,17.1-17.5,50.7-23.1,74.8c-3.6,15.2-5.8,26.7-5.8,27.9L261.1,1705.3z"/>
<path class="st1" d="M256.7,1735.1l0.7,0.1l9.3,1c0,0,4.4-9.3,15.9-23.8c11.8-14.9,31.1-35.2,61-56.4c0,0-44.7,22-63.1,38.5
	c-6,5.5-11.5,11.4-16.6,17.7c-5.6,7-10.8,14.3-15.5,21.9L256.7,1735.1z"/>
<path class="st1" d="M1686.7,1695.1c9.8,5.2,19.3,11,28.4,17.3c11.5,14.4,15.9,23.8,15.9,23.8l9.3-1c0.4,0.5,0.8,1.1,1.1,1.7
	c0,0-0.1-0.6-0.4-1.7l8.4-0.9c-4.7-7.6-9.9-15-15.5-21.9c-4.2-10.4-10.3-22.1-18.7-30.5c-24.3-24.3-47.1-33.2-67.4-42.8
	c0,0,39.6,5.3,65.3,25.7c7,5.6,14.2,13.2,19.8,19.6l3.8,21.1l10.7,1.1c0-1.2-2.2-12.7-5.8-27.9l-8.1-98.9c0,0,14.4,27.3,17.7,86.7
	s3.2,94.7,3.2,94.7s-43.3-43.3-88.3-61s-67.4-20.9-67.4-20.9S1641.7,1671,1686.7,1695.1z"/>
<path class="st1" d="M1736.4,1705.3l-3.8-21.1l-14.4-80.6c8.5,17.1,17.5,50.7,23.1,74.8c3.6,15.2,5.8,26.7,5.8,27.9L1736.4,1705.3z"
	/>
<path class="st1" d="M1740.9,1735.1l-0.7,0.1l-9.3,1c0,0-4.4-9.3-15.9-23.8c-11.8-14.9-31.1-35.2-61-56.4c0,0,44.7,22,63.1,38.5
	c6,5.5,11.5,11.4,16.6,17.7c5.6,7,10.8,14.3,15.5,21.9L1740.9,1735.1z"/>
<path class="st1" d="M1590.5,1464.3c11.4,6,22.4,12.7,32.9,20.1c13.3,16.8,18.4,27.6,18.4,27.6l10.7-1.2c0.9,1.3,1.3,1.9,1.3,1.9
	s-0.2-0.7-0.4-2l9.7-1.1c-5.4-8.9-11.5-17.3-18-25.4c-4.8-12.1-11.9-25.6-21.7-35.4c-28.2-28.2-54.6-38.5-78.2-49.6
	c0,0,45.9,6.2,75.7,29.8c8.2,6.5,16.5,15.3,22.9,22.7l4.4,24.4l12.4,1.2c0-1.4-2.6-14.7-6.7-32.3l-9.4-114.7
	c0,0,16.8,31.6,20.5,100.5s3.7,109.8,3.7,109.8s-50.3-50.3-102.4-70.7s-78.2-24.2-78.2-24.2S1538.4,1436.4,1590.5,1464.3z"/>
<path class="st1" d="M1648.2,1476.1l-4.4-24.4l-16.7-93.4c9.9,19.8,20.3,58.8,26.8,86.8c4.1,17.6,6.7,30.9,6.7,32.3L1648.2,1476.1z"
	/>
<path class="st1" d="M1653.3,1510.7l-0.8,0.1l-10.7,1.2c0,0-5.1-10.8-18.4-27.6c-13.7-17.3-36.1-40.8-70.7-65.4
	c0,0,51.9,25.6,73.2,44.7c6.9,6.3,13.3,13.2,19.2,20.5c6.5,8.1,12.6,16.6,18,25.4L1653.3,1510.7z"/>
<path class="st1" d="M478.8,1653.4c-8.7,2.3-17.4,4.6-26.1,6.8l-13.1,3.4l-6.5,1.7l-3.3,0.8c-1.1,0.3-2.2,0.5-3.3,0.6l-5.6,0.1
	l-0.1-4.4l-0.7-48l10.5,46.9l-5.7-4.3c1.1-0.3,2.2-0.5,3.3-0.5l3.4-0.2l6.7-0.4l13.5-0.8C460.9,1654.5,469.8,1653.9,478.8,1653.4z"
	/>
<path class="st1" d="M543.3,1646c-8.7,2.3-17.4,4.6-26.1,6.8l-13.1,3.3l-6.5,1.7l-3.3,0.8c-1.1,0.3-2.2,0.5-3.3,0.6l-5.6,0.1
	l-0.1-4.4l-0.7-48l10.5,46.9l-5.6-4.3c1.1-0.3,2.2-0.5,3.3-0.5l3.4-0.2l6.7-0.4l13.5-0.8C525.4,1647,534.4,1646.5,543.3,1646z"/>
<path class="st1" d="M607.9,1637.3c-8.7,2.3-17.4,4.6-26.1,6.8l-13.1,3.4l-6.5,1.7l-3.3,0.8c-1.1,0.3-2.2,0.5-3.3,0.5l-5.6,0.1
	l-0.1-4.4l-0.7-48l10.5,46.9l-5.6-4.3c1.1-0.3,2.2-0.5,3.3-0.5l3.4-0.2l6.7-0.4l13.5-0.8C589.9,1638.3,598.9,1637.8,607.9,1637.3z"
	/>
<path class="st1" d="M672.4,1629.9c-8.7,2.3-17.4,4.6-26.1,6.8l-13.1,3.3l-6.5,1.7l-3.3,0.8c-1.1,0.3-2.2,0.5-3.3,0.6l-5.6,0.1
	l-0.1-4.4l-0.7-48l10.5,46.9l-5.6-4.3c1.1-0.3,2.2-0.5,3.3-0.5l3.4-0.2l6.7-0.4l13.5-0.8C654.4,1630.9,663.4,1630.3,672.4,1629.9z"
	/>
<path class="st1" d="M452.8,1588.9c-8.7,2.3-17.4,4.6-26.1,6.8l-13.1,3.4l-6.5,1.7l-3.3,0.8c-1.1,0.3-2.2,0.5-3.3,0.6l-5.6,0.1
	l-0.1-4.4l-0.7-48l10.5,46.9l-5.6-4.3c1.1-0.3,2.2-0.5,3.3-0.5l3.4-0.2l6.7-0.4l13.5-0.8C434.8,1589.9,443.8,1589.4,452.8,1588.9z"
	/>
<path class="st1" d="M559.8,1423.3c-8.1,2.2-16.2,4.4-24.4,6.5l-12.2,3.2l-6.1,1.6l-3,0.8c-1,0.3-2,0.5-3.1,0.5h-5.6v-4.3l-0.3-44.9
	l10.1,43.8l-5.6-4.3c1-0.3,2.1-0.4,3.1-0.5l3.2-0.2l6.3-0.3l12.6-0.7C543,1424.1,551.4,1423.6,559.8,1423.3z"/>
<path class="st1" d="M535.5,1366.7c-8.1,2.2-16.2,4.4-24.4,6.5l-12.2,3.2l-6.1,1.6l-3,0.8c-1,0.3-2,0.5-3.1,0.5h-5.6v-4.3l-0.3-44.9
	l10,43.8l-5.6-4.3c1-0.3,2.1-0.4,3.1-0.5l3.1-0.2l6.3-0.3l12.6-0.7C518.7,1367.5,527,1367.1,535.5,1366.7z"/>
<path class="st1" d="M1441.9,1421.4c8.4,0.4,16.8,0.8,25.2,1.3l12.6,0.7l6.3,0.3l3.1,0.2c1,0,2.1,0.2,3.1,0.5l-5.6,4.3l10.1-43.8
	l-0.3,44.9v4.3h-5.6c-1,0-2.1-0.2-3.1-0.5l-3-0.8l-6.1-1.6l-12.2-3.2C1458.2,1425.8,1450,1423.6,1441.9,1421.4z"/>
<path class="st1" d="M1466.3,1366.7c8.4,0.4,16.8,0.8,25.2,1.3l12.6,0.7l6.3,0.3l3.1,0.2c1,0,2.1,0.2,3.1,0.5l-5.6,4.3l10.1-43.8
	l-0.3,44.9v4.3h-5.6c-1,0-2.1-0.2-3.1-0.5l-3-0.8l-6.1-1.6l-12.2-3.2C1482.5,1371.1,1474.4,1368.9,1466.3,1366.7z"/>
<path class="st1" d="M502,1266.2c-8.1,2.2-16.2,4.4-24.4,6.5l-12.2,3.3l-6.1,1.6l-3,0.8c-1,0.3-2,0.5-3.1,0.5h-5.6v-4.3l-0.3-44.9
	l10.1,43.8l-5.6-4.3c1-0.3,2.1-0.4,3.1-0.5l3.1-0.2l6.3-0.3l12.6-0.7C485.2,1267,493.6,1266.6,502,1266.2z"/>
<path class="st1" d="M1499.8,1266.2c8.4,0.4,16.8,0.8,25.2,1.3l12.6,0.7l6.3,0.3l3.2,0.2c1,0,2.1,0.2,3.1,0.5l-5.6,4.3l10.1-43.8
	l-0.3,44.9v4.3h-5.6c-1,0-2.1-0.2-3.1-0.5l-3-0.8l-6.1-1.6l-12.2-3.2C1516,1270.6,1507.9,1268.4,1499.8,1266.2z"/>
<path class="st1" d="M517.3,1581.5c-8.7,2.3-17.4,4.6-26.1,6.8l-13.1,3.3l-6.5,1.7l-3.3,0.8c-1.1,0.3-2.2,0.5-3.3,0.6l-5.6,0.1
	l-0.1-4.4l-0.7-48l10.5,46.9l-5.6-4.3c1.1-0.3,2.2-0.5,3.3-0.5l3.4-0.2l6.7-0.4l13.5-0.8C499.3,1582.5,508.3,1581.9,517.3,1581.5z"
	/>
<path class="st1" d="M581.8,1572.8c-8.7,2.3-17.4,4.6-26.1,6.8l-13.1,3.4l-6.5,1.7l-3.3,0.8c-1.1,0.3-2.2,0.5-3.3,0.6l-5.6,0.1
	l-0.1-4.4l-0.7-48l10.5,46.9l-5.6-4.3c1.1-0.3,2.2-0.5,3.3-0.5l3.4-0.2l6.7-0.4l13.5-0.8C563.9,1573.8,572.8,1573.3,581.8,1572.8z"
	/>
<path class="st1" d="M646.3,1565.3c-8.7,2.3-17.4,4.6-26.1,6.8l-13.1,3.3l-6.5,1.7l-3.3,0.8c-1.1,0.3-2.2,0.5-3.3,0.6l-5.6,0.1
	l-0.1-4.4l-0.7-48l10.5,46.9l-5.6-4.3c1.1-0.3,2.2-0.5,3.3-0.5l3.4-0.2l6.7-0.4l13.5-0.8C628.4,1566.4,637.4,1565.8,646.3,1565.3z"
	/>
<path class="st1" d="M1545.2,1653.4c9,0.5,18,1,26.9,1.6l13.5,0.8l6.7,0.4l3.4,0.2c1.1,0,2.2,0.2,3.3,0.5l-5.6,4.3l10.5-46.9
	l-0.7,48l-0.1,4.4l-5.6-0.1c-1.1,0-2.2-0.2-3.3-0.6l-3.3-0.8l-6.5-1.7l-13.1-3.4C1562.6,1658,1553.9,1655.8,1545.2,1653.4z"/>
<path class="st1" d="M1480.7,1646c9,0.5,18,1,26.9,1.6l13.5,0.8l6.7,0.4l3.4,0.2c1.1,0,2.2,0.2,3.3,0.5l-5.6,4.3l10.5-46.9l-0.7,48
	l-0.1,4.4l-5.6-0.1c-1.1,0-2.2-0.2-3.3-0.6l-3.3-0.8l-6.5-1.7l-13.1-3.3C1498.1,1650.6,1489.4,1648.3,1480.7,1646z"/>
<path class="st1" d="M1416.2,1637.3c9,0.5,18,1,26.9,1.6l13.4,0.8l6.7,0.4l3.4,0.2c1.1,0,2.2,0.2,3.3,0.5l-5.6,4.3l10.4-46.9
	l-0.7,48l-0.1,4.4l-5.6-0.1c-1.1,0-2.2-0.2-3.3-0.5l-3.3-0.8l-6.5-1.7l-13.1-3.4C1433.6,1641.9,1424.9,1639.6,1416.2,1637.3z"/>
<path class="st1" d="M1351.7,1629.9c9,0.5,18,1,26.9,1.6l13.5,0.8l6.7,0.4l3.4,0.2c1.1,0,2.2,0.2,3.3,0.5l-5.6,4.3l10.5-46.9
	l-0.7,48l-0.1,4.4l-5.6-0.1c-1.1,0-2.2-0.2-3.3-0.6l-3.3-0.8l-6.5-1.7l-13.1-3.3C1369.1,1634.4,1360.4,1632.2,1351.7,1629.9z"/>
<path class="st1" d="M1571.3,1588.9c9,0.5,18,1,26.9,1.6l13.5,0.8l6.7,0.4l3.4,0.2c1.1,0,2.2,0.2,3.3,0.5l-5.7,4.3l10.5-46.9
	l-0.7,48l-0.1,4.4l-5.6-0.1c-1.1,0-2.2-0.2-3.3-0.6l-3.3-0.8l-6.5-1.7l-13.1-3.4C1588.7,1593.5,1580,1591.2,1571.3,1588.9z"/>
<path class="st1" d="M1506.8,1581.5c9,0.5,18,1,26.9,1.6l13.5,0.8l6.7,0.4l3.4,0.2c1.1,0,2.2,0.2,3.3,0.5l-5.6,4.3l10.5-46.9
	l-0.7,48l-0.1,4.4l-5.6-0.1c-1.1-0.1-2.2-0.2-3.3-0.6l-3.3-0.8l-6.5-1.7l-13.1-3.3C1524.2,1586,1515.5,1583.8,1506.8,1581.5z"/>
<path class="st1" d="M1442.3,1572.8c9,0.5,18,1,26.9,1.6l13.5,0.8l6.7,0.4l3.4,0.2c1.1,0,2.2,0.2,3.3,0.5l-5.6,4.3l10.5-46.9
	l-0.7,48l-0.1,4.4l-5.6-0.1c-1.1-0.1-2.2-0.2-3.3-0.6l-3.3-0.8l-6.5-1.7l-13.1-3.4C1459.7,1577.4,1451,1575.1,1442.3,1572.8z"/>
<path class="st1" d="M1377.7,1565.3c9,0.5,18,1,26.9,1.6l13.5,0.8l6.7,0.4l3.4,0.2c1.1,0,2.2,0.2,3.3,0.5l-5.6,4.3l10.5-46.9
	l-0.7,48l-0.1,4.4l-5.6-0.1c-1.1,0-2.2-0.2-3.3-0.6l-3.3-0.8l-6.5-1.7l-13.1-3.3C1395.1,1569.9,1386.4,1567.7,1377.7,1565.3z"/>
<path class="st0" d="M1370.4,421.3c-83.8-129.1-272.8-175.6-357.1-175.6c-84.6,0-276.9,46.5-360.8,175.6
	c-89.3,137.4-104.1,328.3-104.1,328.3c173.5,54.7,384.8,72.7,450.6,72.7c65.4,0,318.9-12.4,475.5-72.7
	C1474.5,749.6,1459.6,558.7,1370.4,421.3z"/>
<path class="st1" d="M998.8,828.5c-69.2,0-279.1-18.4-452.2-73l-4.7-1.5l0.4-5c0.2-1.9,16-194,105.1-331.2
	c47.3-72.8,125.6-115.5,183-138.6c73.1-29.4,142.5-39.9,183-39.9c40.3,0,108.9,10.5,181.1,39.9c56.6,23,134,65.7,181.3,138.6
	c89.1,137.2,105,329.3,105.1,331.2l0.4,4.6l-4.3,1.7c-154.6,59.5-402.9,73-477.8,73.1L998.8,828.5z M555.1,745.1
	c170.8,53,375.7,70.9,443.7,70.9h0.2c73.5,0,315.8-13.2,468.9-70.6c-3-29.9-23-198-102.7-320.7c-84.7-130.5-273.6-172.7-351.8-172.8
	c-76.3,0-271.6,43.5-355.5,172.7C578.3,547,558.2,714.4,555.1,745.1z"/>
<path class="st1" d="M931,258.1c0,0-46.4,45-71.4,140.8s-25,197.8-25,197.8l21.4-3c0,0,0-119.9,21.4-200.7S931,258.1,931,258.1z"/>
<path class="st1" d="M1091.6,258.1c0,0,46.4,45,71.4,140.8s25,197.8,25,197.8l-21.4-3c0,0,0-119.9-21.4-200.8
	S1091.6,258.1,1091.6,258.1z"/>
<path class="st0" d="M921.7,259c0,0,42.8-12.8,46.4-35.2l3.6-22.4h57.1c-2,8.7-0.7,17.8,3.6,25.6c7.1,12.8,50,32,50,32l-82.1,32
	L921.7,259z"/>
<path class="st1" d="M1000.1,295.9l-91.9-37.5l12.1-3.6c11.2-3.4,40.7-15.6,43.3-31.6l4.2-26.1h66.8l-1.6,5.7
	c-1.6,7.6-0.5,15.4,3.2,22.2c4.7,8.4,31.9,22.9,47.9,30.1l9.7,4.4L1000.1,295.9z M934,259.3l66.2,27l70.8-27.6
	c-13.6-6.7-36.9-19.3-42.6-29.4c-3.9-7.1-5.6-15.2-4.9-23.3h-48l-3,18.6C969.7,241.8,947.8,253.5,934,259.3z"/>
<polygon class="st1" points="692.9,799.5 622,876.8 609.9,990.2 609.9,1025 588.5,1110.6 577.8,1156.1 599.2,1215 614.8,1248 
	615.3,1340.8 644.7,1501.3 706.1,1612.6 759.8,1680.7 842.8,1760.9 866.8,1781.6 921.8,1790.9 1021.2,1799.6 1140,1781.4 
	1265.6,1661.9 1350.2,1545.9 1386,1375.6 1396.6,1231.7 1420.4,1177.1 1420.8,1121.3 1399.4,1022.3 1385.5,876.8 1320.9,785.7 
	1214.8,832.3 1047.3,860.1 899,848.3 781.2,829.6 "/>
<path class="st0" d="M667.4,1048.3c0,0,73.2,0,81.9-1.7s68,15.7,68,15.7s34.9,10.5,54,33.1s26.2,40.1,26.2,40.1
	c-22.3-9.2-45.8-15.1-69.7-17.4c-38.3-3.5-76.7-3.5-92.4-13.9s-55.8-36.6-55.8-36.6L667.4,1048.3z"/>
<path class="st0" d="M1336.7,1048.3c0,0-73.2,0-81.9-1.7s-68,15.7-68,15.7s-34.9,10.5-54,33.1s-26.1,40.1-26.1,40.1
	c22.3-9.2,45.8-15.1,69.7-17.4c38.3-3.5,76.7-3.5,92.4-13.9s55.8-36.6,55.8-36.6L1336.7,1048.3z"/>
<path class="st0" d="M1006.5,1476.7c0,0-57.9-7.7-104.4-19.3s-91.8-43-126.7-36s-59.3,50-59.3,68.6s8.1,55.8,37.2,72
	s74.4,20.9,95.3,4.7s38.3-48.8,62.8-53.4s62.8,30.2,97.6,26.7c0,0,53.5-34.9,86-24.4c0,0,25.6,7,50,45.3s111.6,14,131.3-22.1
	c16.7-30.4,23.2-102.3-27.9-111.6s-110.4,19.8-148.7,34.9S1006.5,1476.7,1006.5,1476.7z"/>
<path class="st1" d="M796.3,1421.6c0,0-24.3,35.8-20.9,96.3s29,125.5,29,125.5s8.1-38.3,10.5-56.9s18.6-77.9,24.4-95.3
	s25.6-45.3,25.6-45.3L796.3,1421.6z"/>
<path class="st1" d="M1209.8,1421.6c0,0,24.3,35.8,20.9,96.3s-29.1,125.5-29.1,125.5s-8.1-38.3-10.5-56.9s-18.6-77.9-24.4-95.3
	s-25.6-45.3-25.6-45.3L1209.8,1421.6z"/>
<path class="st0" d="M1003.8,1804.8h-0.5c-25.7,0-119.5-7.6-137.3-18.3c-16.6-10-169.1-140-208.6-240.5
	c-37.5-95.4-49.3-233.5-49.3-264c0-24-14.1-68.5-27.3-98.3c-11.6-26.2,2-78.1,12.9-119.8c3.2-12.2,6-22.8,7.6-30.9
	c6.8-33.8,6.8-157.8,6.8-159v-2.7l82.7-90.3l5,3.7c0.4,0.3,38.5,27.4,119.6,47.7c77.4,19.3,177.2,20.6,188.4,20.7
	c11-0.1,110.9-1.4,188.3-20.7c81.1-20.3,119.2-47.4,119.6-47.7l5-3.6l4.2,4.6l78.5,85.7v2.7c0,1.3,0.1,125.2,6.8,159
	c1.6,8.1,4.4,18.6,7.6,30.9c10.9,41.7,24.5,93.6,12.9,119.8c-13.2,29.8-27.3,74.3-27.3,98.3c0,30.6-11.8,168.6-49.3,264
	c-39.5,100.5-192,230.5-208.6,240.5c-18.1,10.9-99.2,18.3-137.1,18.3L1003.8,1804.8L1003.8,1804.8z M622,876.8
	c0,19-0.6,126.3-7.1,159c-1.7,8.5-4.5,19.2-7.8,31.7c-9.3,35.4-23.3,88.9-13.6,110.6c13.8,31.1,28.5,78.1,28.5,103.9
	c0,17.8,9,158.8,48.3,258.9c37.6,95.6,187.3,224.3,202.8,233.6c12.9,7.8,99.6,16.3,130,16.3h1.6c42.7,0,116.5-8.4,129.7-16.3
	c15.5-9.3,165.2-138,202.8-233.6c39.3-100.1,48.3-241.1,48.3-258.9c0-25.9,14.7-72.9,28.5-103.9c9.6-21.7-4.4-75.2-13.6-110.6
	c-3.3-12.4-6.1-23.2-7.8-31.7c-6.5-32.7-7.1-140-7.1-159l-70.8-77.3c-13.2,8.3-51.5,29.6-119.2,46.5c-79,19.7-180.3,21-191.6,21.1
	C992.4,867,891,865.7,812.1,846c-67.7-16.9-106-38.2-119.2-46.5L622,876.8z"/>
<path class="st0" d="M905.2,1145.6l-10.2-5.5c-25-13.4-50-15.9-79-18.8c-21.6-2.1-46-4.6-73.3-12.2c-48.8-13.6-78.4-56.1-79.6-57.9
	l-7-10.3l12.3,2.2c13.8,2.5,23.9,1.2,35.6-0.3c19.8-2.6,44.4-5.8,97.2,7.4c85.8,21.4,100.8,81.5,101.4,84.1L905.2,1145.6z
	 M679.4,1055c11.4,12.9,34.7,35.4,66.1,44.1c26.5,7.4,49.4,9.6,71.6,11.8c24.6,2.4,48,4.7,70.9,14.3c-8.4-17.6-31.5-50.3-89.4-64.8
	c-50.9-12.7-73.4-9.8-93.3-7.2C696.8,1054.3,688.7,1055.4,679.4,1055z"/>
<path class="st0" d="M956.3,1040c-16.6,8.4-34,18.7-53.3,13c-14.3-4.2-25.4-15.1-34.9-26.1c-14.8-17.2-27-34.9-47.5-45.9
	c-1.2-0.6-1.6,2.2-0.7,2.8c26.3,16.8,36.7,48.6,60.9,67.8c25.3,20.1,51.7,13.3,77.2-3.3C960.8,1046.5,960.1,1038,956.3,1040
	L956.3,1040z"/>
<path class="st0" d="M867.6,1030.2c-18.5-8.7-38.5-13.6-57-23c-17.6-9-34.5-19.3-52.7-27.2c-18.3-8-36.7-8.7-55.5-14.1
	c-22.2-6.4-41.5-19.9-56.7-37c-0.6-0.7-1.1,0.6-0.7,1.1c11,14.7,25,27.6,41.5,35.9c19.6,9.9,41.6,14,61.9,22.3
	c20.8,8.5,40.4,19.5,60.6,29.3c17.2,8.3,38.8,19.6,58.3,17.1C869.2,1034.3,869.1,1031,867.6,1030.2L867.6,1030.2z"/>
<path class="st0" d="M936.6,1058.8c32.3,15.7,13.5,57.8,4.8,82.9c-6.9,19.6-13.7,39.7-14.9,60.6c-1.6,25.8,5.7,57.5,29.5,71.6
	c1.8,1,1.8-3,1-3.9c-42.5-41.4-21.6-94.1-4.7-142.5c7.6-21.7,21-71.7-15.1-76C933.8,1051.1,934.4,1057.8,936.6,1058.8L936.6,1058.8z
	"/>
<path class="st0" d="M969.8,1055.3c1.8,41.7,1.4,83.4-1.3,125.1c-1.3,19.3-3.3,38.7-6.3,57.8c-1.2,7.7-1.4,18.2-5.1,25.1
	c-10.6,20-36.2,6.2-51.6,3.1c-16.2-3.3-36.2-2.6-46.2,12.9c-8.8,13.8-4.6,31.2,2.7,44.6s24.4,36.4,40.3,39.6
	c10.7,2.1,19.5-6.2,16.5-16.7c-1-3.4-3.7-1.3-3.3,1.5c3,19.8-21.5,0.9-23.2-0.6c-5-4.4-9.4-9.8-13.5-15c-8.7-11-14.8-20.2-14.2-34.5
	c0.5-11.4,3.4-16.4,14.5-20.1c6.3-2.1,13.3-1.8,19.8-1c11,1.4,21.4,6,32.4,7.6c31.6,4.5,35.5-22.6,38.2-47.5
	c6.5-59.2,9.3-122.9,1.9-182.1C971.3,1053.4,969.7,1054,969.8,1055.3L969.8,1055.3z"/>
<path class="st0" d="M861.9,1289.9c18.2,29.1,43.2,54.8,68.8,77.4c18.3,16.1,54.8,52.8,81.3,39.5c3.3-1.7,3.1-9.4-1.1-9.7
	c-10.2-0.8-19-0.7-28.4-5.3c-8.7-4.2-16.4-10.3-24.2-15.9c-10-7.1-19.7-14.2-29.1-22c-23.8-19.8-47.3-41.2-66-66
	C862.2,1286.4,861.4,1289,861.9,1289.9L861.9,1289.9z"/>
<path class="st0" d="M916.5,1059c1,11.9,4.1,23.6,4.5,35.6c0.4,16-3.7,29.7-10.6,43.9c-7.8,16.2-17.6,31.5-22.8,48.8
	c-7.7,25.9-7.3,69.9,12.4,90.8c4.6,4.8,6.2-6.2,5.4-8.6c-3.3-10.1-9.5-18.4-11.8-29.1c-2.6-11.5-3-23.4-1.4-35.1
	c2.9-19.9,12.7-37.1,21.1-55c14.1-30,17.6-60.8,6-92.5C918.4,1055.6,916.3,1057.3,916.5,1059L916.5,1059z"/>
<path class="st0" d="M652,1004c-23.1,43-7.7,101.8,28,133.2c24.2,21.2,56.6,27.4,87.7,30.4c20.6,2,41.4,3,62.1,3.2
	c11.1,0.1,56.7-7.8,59.9,8.3c0.8,4.1,5.6,4.3,5.9-0.1c2-23.3-27.8-19.6-43.1-19.2c-38.6,1-79.5,0.7-117.4-7.6
	c-68-14.7-104.5-80.3-81.3-146C654.3,1005,653,1002.2,652,1004L652,1004z"/>
<path class="st0" d="M652.5,1007.2c17.7,18.3,54,9,76,6c32-4.4,58.6-4.5,89.5,6.5c2.5,0.9,2.7-3.9,1.3-5
	c-19.1-14.3-45.7-14.4-68.5-12.1c-28.3,2.9-70.9,17.8-97,1.5C651.9,1003.1,651.6,1006.3,652.5,1007.2L652.5,1007.2z"/>
<path class="st0" d="M850.6,1031.9c13,9.4,26.8,17.2,38.6,28.2c12.9,12,20.5,26.2,31.1,39.8c2.1,2.7,3.5-1.8,2.8-3.5
	c-10-28.2-42.6-60-71.8-67.1C850,1029,849.8,1031.3,850.6,1031.9L850.6,1031.9z"/>
<path class="st0" d="M902.8,1056.5c0.1,3.8,0.1,15.5,4.9,17.1c3.9,1.3,4.5-4.5,2.6-6.8c-0.4-0.7-1.2-1-1.9-0.7l-0.5,0.2
	c-1.6,0.5-1.5,3.3-1.1,4.4c1.7,4.4,3.3,9,6,12.9c1.3,1.8,2.5-0.9,2.2-2.1c-1-4.8-3-9.4-4.9-13.9c-0.4,1.5-0.7,3-1.1,4.4l0.5-0.2
	l-1.9-0.7c0.3,0.3-0.8-8-1.1-9.4c-0.4-1.9-0.8-3.8-1.2-5.8C904.8,1053.7,902.8,1054.5,902.8,1056.5L902.8,1056.5z"/>
<path class="st0" d="M894.2,1270.5c19.7,19.5,41.6,37,62.4,55.3c13.3,11.6,27.5,31.6,46.7,31.7c2.1,0,2.2-4.7,0.3-5.2
	c-21-4.6-36.9-24.5-52.7-38.2c-18.3-15.8-36.2-32.5-55.5-47.1C893.6,1265.7,893.1,1269.4,894.2,1270.5L894.2,1270.5z"/>
<path class="st0" d="M712.8,907.5c12.8,21,33.3,36.2,57.2,42.3c30,7.5,62.5-1.3,91,13.1c23.5,11.9,43.6,39.3,73.1,34.9
	c18.1-2.7,28.6-17,26.5-34.6c-0.2-1.8-2-1-2,0.5c-0.5,20-23.8,27-39.8,23.1c-11.3-2.7-21.1-9.2-30.6-15.6
	c-15.1-10.1-29.9-19.4-48.2-22.5c-22.9-3.8-46.3,0.2-69.1-4.4c-24.2-5-42.5-19.1-56.8-38.7C713,904.3,712.3,906.6,712.8,907.5
	L712.8,907.5z"/>
<path class="st0" d="M627.5,1092.2c-20.9,41.5,14.3,84.1,51.8,99c27.7,11,58.5,13.9,87.7,18.4c15.7,2.4,38.9,1.7,52,11.6
	c17.2,13,13.9,36.7,12.8,55.4c-0.1,1.8,1.8,2.2,2.2,0.4c4.8-19.7,7.8-44.8-7.2-61.1s-46.3-15.1-66.3-18.1
	c-30.3-4.6-62.2-7.3-90-21.1c-30.8-15.2-54.8-47.8-41.7-83C629.1,1092.9,628.2,1090.9,627.5,1092.2L627.5,1092.2z"/>
<path class="st0" d="M795,1419.7c-46.7,68.6-19.2,160.7,8.6,230.4c2.1,5.4,6.3-0.8,4.9-4.6c-28.5-73.7-46.1-148.3-10.7-222.7
	C798.6,1421.1,796.7,1417.2,795,1419.7z"/>
<path class="st0" d="M807.1,1650.3c8.7-31.1,9.5-64.6,16.5-96.2c8-36.2,20.7-70.2,41.7-100.9c2.6-3.9-1.3-13.3-5.4-7.8
	c-20.6,28.1-32.4,61.6-40.3,95.2c-8.2,34.6-15.8,73.1-14.8,108.8C804.8,1650.7,806.5,1652.1,807.1,1650.3L807.1,1650.3z"/>
<path class="st0" d="M782.9,1575c-29.7-14.2-63.5-37.2-63.4-74.3c0.1-35.6,33.8-71.2,69.3-71.7c37.4-0.5,71.8,24.9,106.1,37
	c34.7,12.3,74.6,21.6,111.7,19.6c4.8-0.3,4.4-10.1-0.3-10.6c-27.7-3-54.7-4.7-81.9-11.8c-24.7-6.4-47.8-16.1-70.9-26.7
	c-34.7-16-73.7-30.2-106.9-3.4c-23.8,19.2-39.6,51.6-32.9,82.3c7.4,33.4,36.4,56.9,68.1,66.2C785.2,1582.6,785.4,1576.2,782.9,1575
	L782.9,1575z"/>
<path class="st0" d="M706.8,1340.4c-3.5-32.8-22.6-59.7-45.5-82.3c-12.8-12.7-26.5-24.3-39.2-36.9c-7.7-7.4-14.7-15.3-21.2-23.8
	c-5.1-6.8-8.5-14.9-15.1-20.3c-4.2-3.4-6,4-5.6,6.8c4.6,27.7,35.4,52,55.1,69.7c27.8,24.9,57.2,50.7,68.3,87.6
	C704.4,1343.6,707,1343,706.8,1340.4L706.8,1340.4z"/>
<path class="st0" d="M643.5,1250.7c-13,48-21.2,99.8-19.3,149.7c0,1.2,1.5,1.7,1.6,0.3c4.3-50.3,9.6-98.9,20.6-148.3
	C646.7,1250.6,644.2,1248,643.5,1250.7L643.5,1250.7z"/>
<path class="st0" d="M662,1271.9c-6.6,36.2-9.8,73.3-12.8,109.9c-2.8,34.4-6.8,70.1-5.1,104.7c0.1,2.2,2.8,3.4,3.1,0.6
	c3.5-35.5,2.9-71.6,5.8-107.2c2.9-35.8,8-71.3,11.5-106.9C664.8,1270.8,662.5,1269.2,662,1271.9L662,1271.9z"/>
<path class="st0" d="M683.5,1296.9c-6.8,54.3-9.3,109.1-7.4,163.8c1.7,52,8.3,105.4,26.3,154.5c1.3,3.5,4.5,0.1,3.8-2.6
	c-15.7-52-24.5-103.9-25.8-158.3c-1.3-52.5,4.3-104.6,5.4-157C685.6,1295.6,683.8,1295,683.5,1296.9L683.5,1296.9z"/>
<path class="st0" d="M736.6,1405.7c-39.6,20.8-62.1,71.8-53.1,115.3c9.9,47.8,59.4,90.3,107.3,96.1c2.8,0.3,3-6.3,0.4-6.9
	c-42.6-10-84.8-38.6-100.2-81.4c-15.7-43.6,8.6-95.1,46.4-118.6C739.1,1409.2,738.7,1404.6,736.6,1405.7z"/>
<path class="st0" d="M737.5,1410.2c48.6-18.5,94.2-6.6,138.1,17.7c19.4,10.7,38.5,20.9,60.3,25.9c23.2,5.3,47.1,5.9,70.8,6
	c3,0,2.9-6.8-0.2-6.8c-27.5-0.5-55.4-1.1-81.9-9.5c-22.6-7.1-42.5-20.2-63.4-30.9c-38.1-19.4-85.5-28.7-124.7-6.9
	C735,1406.6,735.3,1411,737.5,1410.2L737.5,1410.2z"/>
<path class="st0" d="M673.9,929.3c7.2,17.3,21.1,39.3,39.5,46.2c2.3,0.9,2.3-3.6,1.2-4.6c-6.9-6-14.6-10.8-21.2-17.1
	c-7.8-7.4-13.3-16.2-17.8-25.9C674.7,926.1,673.4,928.1,673.9,929.3z"/>
<path class="st0" d="M696.6,931.8c7.7,19.6,21.4,39.5,40.4,49.5c1.5,0.8,1.8-2.7,0.9-3.4c-16.7-13.7-30.7-27.4-39.7-47.5
	C697.4,928.8,696.2,930.6,696.6,931.8L696.6,931.8z"/>
<path class="st0" d="M717.7,936.4c12,22.5,29.4,46.1,51.9,59c1.7,1,2-3,1-3.8c-20.4-17.1-38.4-33.2-51.5-56.9
	C718.4,933.3,717.2,935.5,717.7,936.4L717.7,936.4z"/>
<path class="st0" d="M790.9,1001.7c-10-8.2-19.3-17.3-27.6-27.2c-7.6-9.1-13.1-19.4-20-28.9c-1.2-1.7-2.2,1.1-1.8,2.2
	c9.4,22.4,29.1,42.7,48.3,57.1C791.4,1006,792.1,1002.6,790.9,1001.7L790.9,1001.7z"/>
<path class="st0" d="M799.4,980.9c15.5,6,23.1,20.5,33.3,32.4c6.9,8.1,16.2,17.1,27.7,15.8c1.9-0.2,2-4.1,0.3-4.6
	c-15.1-4.4-22.6-12.9-32.8-24.3c-8.1-9.1-16.2-18-28.1-21.7C798.6,978.1,798.5,980.5,799.4,980.9L799.4,980.9z"/>
<path class="st0" d="M781.5,979.8c8,6.3,15.9,12.5,22.6,20.3c6.1,7,11.3,14.8,17.6,21.6c1.5,1.6,2.4-2,1.9-3
	c-8.8-16.3-26-30.8-41.4-40.7C781.2,977.4,780.9,979.3,781.5,979.8L781.5,979.8z"/>
<path class="st0" d="M895.3,998.7c9,13.3,24.9,20.3,40.8,15.8c13.6-3.9,24.7-18.7,22.6-33c-0.3-2.1-2.4-2.5-3.3-0.6
	c-5,11.7-9.2,23-22.3,28c-13.5,5.2-28.4-0.3-37-11.6C895.4,996.4,894.9,998,895.3,998.7L895.3,998.7z"/>
<path class="st0" d="M896.2,1013.7c12.5,10.2,29.1,17.2,44.9,10.9c10.8-4.3,20.4-15.2,17.5-27.4c-0.4-1.8-2.6-2.9-3.3-0.6
	c-3.9,12.1-9.6,21.9-23.2,24.1c-12.9,2.1-24.3-3-35.3-9C895.8,1011.3,895.7,1013.3,896.2,1013.7L896.2,1013.7z"/>
<path class="st0" d="M898.6,1025.9c17.7,11.2,62.7,19.9,61-14c-0.2-3.4-3.4-4.5-4.3-0.8c-2.9,11.7-14.1,19.8-26,20.1
	c-10.6,0.3-20.1-4.8-30.1-7.5C898.1,1023.4,897.9,1025.5,898.6,1025.9L898.6,1025.9z"/>
<path class="st0" d="M871.4,1010.9c12,17.4,29.8,34.1,51.5,37.9c14.3,2.5,33.2-2.3,34.5-19.1c0.2-2.4-2.7-9.1-5.3-4.4
	c-18.9,35.1-63.6,4.8-79.5-16.3C871.6,1007.6,870.7,1010,871.4,1010.9z"/>
<path class="st0" d="M720.9,1416.7c-10.3-28-14.6-54.4-9.5-84.1c2.4-14.6,7-28.8,13.6-42.1c5.5-11,13.7-20,19.7-30.6
	c1.1-2,0.2-8-3-5.6c-22,15.8-33,53.2-36.2,78.7c-3.5,28.2,0.1,60.4,12.9,86.1C719.8,1421.9,721.7,1418.6,720.9,1416.7L720.9,1416.7z
	"/>
<path class="st0" d="M833.2,1402.5c-4.3-23.1-23.4-42.1-38.5-58.9c-23.1-25.7-44.7-52.7-50.9-87.5c-1-6-6.7-3.5-6.7,1.6
	c-0.2,28.3,19.6,56.5,37.3,77.2c8.8,10.3,18.7,19.5,28.1,29.2c11.9,12.4,20,25.6,29.4,39.7C832.6,1404.8,833.3,1403.2,833.2,1402.5
	L833.2,1402.5z"/>
<path class="st0" d="M736.4,1304.1c-18.3,32.4-14.4,72.9,6.3,103.1c1.9,2.8,3.8-2.1,2.5-4c-20.6-29.9-21.8-64.6-7.2-97.2
	C738.5,1304.9,737.3,1302.6,736.4,1304.1L736.4,1304.1z"/>
<path class="st0" d="M735.8,1304.2c-6.2,42.4,45.4,55.9,52.7,93c0.9,4.7,5.4,1.8,4.5-2c-8.1-34.9-59.3-52-54.7-89.9
	C738.6,1303.2,736.2,1301.6,735.8,1304.2L735.8,1304.2z"/>
<path class="st0" d="M642.3,1114c-17.4-40.8-18.9-80.7-5.3-122.9c7.7-23.8,17.8-53.8,2.8-76.8c-1.8-2.8-4,1.3-3.5,3.2
	c6.8,24,4,43.3-3,66.9c-4.7,15.8-9.1,31.3-10.3,47.8c-2,28.8,3.8,58.3,17.6,83.8C641.5,1117.7,642.7,1115,642.3,1114L642.3,1114z"/>
<path class="st0" d="M763.2,1204.1c-12.4,37.3,2.5,76.6,26.1,106.1c13.7,17,30.3,30.9,46.5,45.3c10.9,9.7,20.6,19.7,26.7,33.2
	c5.3,11.8,6.5,24.5,10.5,36.6c1,3.1,3.8,0.6,3.7-1.6c-1.6-37.6-26.3-61.3-52.7-84.4c-38.6-33.9-71.9-78.8-58.3-132.8
	C766.3,1204.4,764.2,1201.2,763.2,1204.1L763.2,1204.1z"/>
<path class="st0" d="M924,1714.7c-12.3-19.2-25-38-35.7-58.2c-9.8-18.5-17.6-37.8-26.9-56.5c-2.1-4.3-4.9,0.7-3.9,3.6
	c13.4,40.7,39.1,80.5,64,115.1C923.5,1721.5,925.2,1716.6,924,1714.7L924,1714.7z"/>
<path class="st0" d="M914.6,1647.9c-6.5-10.6-12-21.8-16.5-33.5c-3.5-9-4.8-19.5-10.2-27.6c-1.7-2.5-3.5,0.6-3.5,2.3
	c-0.1,21,16.8,44.6,28.9,60.8C914.4,1651.6,915.3,1648.9,914.6,1647.9L914.6,1647.9z"/>
<path class="st0" d="M926.6,1619.6c-6.1-8.4-11-17.6-14.5-27.4c-2.6-7.9-2.7-17-6.9-24.2c-1.3-2.2-3.3-0.1-3.5,1.5
	c-1.5,8.9,2.8,18.4,6.5,26.4c4.4,9.5,10,18.4,16.8,26.4C926.5,1623.9,927.5,1620.8,926.6,1619.6L926.6,1619.6z"/>
<path class="st0" d="M861.6,1659.7c-5.6-15.8-10.3-31.7-15.3-47.7c-1.6-5.2-6.4,0.6-4.8,4.5c6.2,15,12.6,29.7,18.2,44.9
	C860.6,1663.4,862.1,1661.1,861.6,1659.7L861.6,1659.7z"/>
<path class="st0" d="M840,1655.3c-6.6-14.3-12.1-28.9-19-43c-3.1-6.3-8.1,1.1-6,5.6c1.2,2.5,2.3,4.7,4.5,6.3c2,1.5,3.3-1.3,3.3-3
	c-0.1-3.1-0.7-6.1-1.8-8.9l-6,5.6c7.2,13.6,15.6,26.3,23.1,39.7C839.1,1659.4,840.5,1656.5,840,1655.3L840,1655.3z"/>
<path class="st0" d="M1101.2,1145.6l2.7-11.3c0.6-2.6,15.7-62.6,101.4-84.1c52.8-13.2,77.4-10,97.2-7.4c11.7,1.5,21.8,2.8,35.6,0.3
	l12.3-2.2l-7.1,10.3c-1.2,1.8-30.8,44.3-79.6,57.9c-27.3,7.6-51.8,10-73.3,12.2c-29,2.9-54,5.3-79,18.8L1101.2,1145.6z M1272.3,1051
	c-15.4,0-35.3,2.1-64.5,9.4c-57.9,14.5-81,47.3-89.4,64.8c23-9.6,46.4-11.9,70.9-14.3c22.2-2.2,45.1-4.5,71.6-11.8
	c31.5-8.7,54.8-31.2,66.1-44.1c-9.4,0.4-17.5-0.6-25.9-1.7C1291.6,1051.9,1282,1051.1,1272.3,1051z"/>
<path class="st0" d="M1056.5,931c-12.4,20.5-12.7,43-12.3,66.3c0.3,16,5.2,45.2-9.3,56.6c-28.7,22.6-29.2-31.7-28.3-46.3l-6.9,0.2
	c0.8,14.2,0,68.5-28.3,45.5c-13.8-11.2-8.9-40.4-8.4-56.1c0.7-22.8,1.1-47.3-12.9-66.7c-1.3-1.8-2.5,1.2-1.9,2.4
	c11.6,24.6,9.4,49.3,7.9,75.6c-0.9,16.2-2.7,37.5,8.7,50.9c8.3,9.9,23,13.3,32.5,3c12.3-13.4,10.4-38.4,9.4-54.8
	c-0.4-6.5-6.6-6.2-6.9,0.2c-0.9,15.8-2.2,37.2,7.3,51.1c8.2,12.1,23.2,11.7,33,1.6c11.6-11.9,10.7-31.3,9.9-46.6
	c-1.4-27.6-6.4-55.7,7.8-81.1C1058.2,931.9,1057.3,929.6,1056.5,931L1056.5,931z"/>
<path class="st0" d="M1047.9,1047.9c23.6,15.3,48.9,24,73.8,6.6c26.8-18.7,37-53,64.6-70.6c1-0.7,0.7-3.6-0.6-2.9
	c-21.8,11.7-34.1,31.3-50.3,49.1c-8.8,9.7-19.2,19.2-32.2,22.9c-19.4,5.5-36.6-4.7-53.3-13.1
	C1046.4,1038.2,1045.4,1046.3,1047.9,1047.9L1047.9,1047.9z"/>
<path class="st0" d="M1139.2,1034.5c19.6,2.5,41.3-8.8,58.5-17.1c20.2-9.8,39.8-20.7,60.6-29.3c20.2-8.3,42.2-12.4,61.7-22.3
	c16.4-8.3,30.4-21.3,41.4-35.9c0.3-0.4-0.1-1.8-0.6-1.2c-14.2,16-31.5,28.4-51.8,35.5c-19.1,6.6-39.1,6.7-58.1,14.7
	s-36.8,18.9-55.2,28.3s-38.4,14.3-56.8,23C1137.1,1030.9,1137.3,1034.3,1139.2,1034.5L1139.2,1034.5z"/>
<path class="st0" d="M1069.2,1051.5c-36.1,4.3-22.4,54.5-14.8,76.2c17,48.6,37.5,100.8-4.9,142.4c-0.9,0.9-0.6,4.8,1.2,3.8
	c25-14.7,31.6-48.8,29.1-75.6c-1.8-19.6-8.3-38.3-14.7-56.7c-8.8-25.1-27.4-67,5-82.8C1072.3,1057.7,1072.4,1051.1,1069.2,1051.5
	L1069.2,1051.5z"/>
<path class="st0" d="M1034.8,1055c-7.5,59.9-4.9,124.9,2.3,184.7c3,25.2,8.3,50.1,39.6,44.6c10.4-1.9,20.4-5.9,30.9-7.3
	c5.1-0.7,10.3-0.6,15.3,0.3c9.3,1.7,19,10.3,21.2,19.9c2.4,10.4-9,25.2-15,33.2c-4.3,5.7-9.9,12.5-15.4,17.3
	c-3.9,3.4-25.5,17.3-23,0.4c0.3-2-2.3-5-3.2-1.9c-2.9,10.3,4.8,19.3,15.9,17.4c16.3-2.7,32.7-25.3,40.4-38.6s11.9-30.6,3.6-44.5
	c-9.7-16.2-29.7-17.3-46.4-14c-11.3,2.3-25.5,9.7-37.3,7.3c-17.5-3.4-17.6-22.2-19.7-35.7c-3.1-20.4-5.2-41-6.5-61.7
	c-2.4-40.3-2.8-80.7-1-121.1C1036.7,1054,1035,1053.4,1034.8,1055L1034.8,1055z"/>
<path class="st0" d="M1143.1,1287.9c-18.8,24.8-42.4,46.2-66.2,66c-8.7,7.2-17.7,13.9-26.9,20.5c-8.6,6.1-16.9,12.9-26.4,17.5
	s-18.2,4.5-28.4,5.3c-4.4,0.3-3.8,8.2-0.6,9.8c26.5,13.2,62.9-23.3,81.3-39.6c25.6-22.6,50.5-48.2,68.7-77.3
	C1145.1,1288.9,1144.2,1286.5,1143.1,1287.9z"/>
<path class="st0" d="M1085.6,1379.1c-20.3,25.5-49.3,42.7-82.5,42.4c-33.4-0.3-60.6-19-81.8-43.3c-1.9-2.2-3.1,1.8-2.1,3.3
	c18.8,27.3,50.5,46,84,45.8s63.8-20.6,83.4-46.7C1087.2,1379.9,1086.4,1378.1,1085.6,1379.1L1085.6,1379.1z"/>
<path class="st0" d="M1087.1,1057.8c-12.1,32.6-7.5,64,7.1,94.6c8.2,17.2,17.4,34,20.1,53.1c1.6,11.7,1.1,23.6-1.5,35.1
	c-2.4,10.6-8.7,18.9-11.9,29c-0.9,2.8,1.3,13.1,5.8,8.3c9.8-10.3,13.4-28.7,15.4-42.5c2.5-16.6,1.2-33.5-3.7-49.5
	c-5.2-16.5-14.4-31.1-21.9-46.5c-6-12.2-10.7-24.7-11-38.4c-0.3-14.1,3.3-27.6,4.5-41.5C1090,1057.8,1088.1,1055.1,1087.1,1057.8
	L1087.1,1057.8z"/>
<path class="st0" d="M1352.6,1006.1c23.2,65.4-13.4,131.3-81.1,145.8c-36.1,7.8-74.5,8.4-111.3,7.8c-14.4-0.2-51.5-6.6-49.4,18
	c0.4,4.5,5,6.5,6.1,1.1c3.1-15.4,46.2-8.1,56.8-8.2c19.7-0.1,39.4-0.9,59.1-2.6c32.4-2.8,66.4-8.1,92.2-29.6
	c36.9-30.9,52.9-90.7,29.7-134.2C1353.4,1002.2,1352,1004.6,1352.6,1006.1L1352.6,1006.1z"/>
<path class="st0" d="M1353,1004c-25.9,16.1-66.4,2-94.7-1.1c-23.7-2.6-51.3-3.1-71.2,11.9c-1.5,1.1-0.9,5.8,1.5,4.9
	c31.1-11,57.3-11,89.5-6.5c22.3,3.1,58.1,12.4,75.8-6C1354.7,1006.5,1354.5,1003.1,1353,1004L1353,1004z"/>
<path class="st0" d="M1155,1029.3c-29.3,7.1-61.9,38.8-71.8,67.1c-0.7,1.9,0.9,6,3,3.4c10.5-13.5,18.3-27.9,31.1-39.8
	c11.7-10.9,25.6-18.7,38.5-28.1C1156.6,1031.3,1156.3,1029,1155,1029.3z"/>
<path class="st0" d="M1101,1056c-0.2,1.1-2.4,12.4-3.5,11.8l1.4,2l-1.5,2.2c-0.4-1.5-0.8-2.9-1.3-4.4c-1.9,4.5-3.9,9.1-4.9,13.9
	c-0.3,1.3,1.1,3.7,2.3,2c2.7-3.9,4.3-8.5,6.1-12.9c0.5-1.2,0.3-3.9-1.3-4.4l-0.5-0.2c-0.5-0.2-1.1,0-1.5,0.3c-1.7,2-2.1,8.1,1.9,7.4
	c5.3-0.8,5.2-13.8,5.3-17.4C1103.5,1054.5,1101.4,1053.9,1101,1056L1101,1056z"/>
<path class="st0" d="M1110.9,1267.1c-18.4,13.9-35.5,29.9-53,45c-16.1,13.9-33.4,35.6-54.8,40.2c-2.2,0.5-2.3,5.2,0.1,5.2
	c19.1-0.1,33.5-20.2,46.7-31.7c20.8-18.2,42.7-35.8,62.4-55.3C1113.4,1269.4,1112.7,1265.8,1110.9,1267.1L1110.9,1267.1z"/>
<path class="st0" d="M1292.4,905.6c-15,20.5-34,34.5-59.3,39.1c-22.1,4-44.7,0.4-66.8,4c-17.3,2.8-31.5,11.5-45.9,21
	c-11.4,7.5-23.3,16-37.3,17.9c-15.1,2.1-34.8-6.1-35.2-24.1c0-1.5-1.8-2.2-2-0.4c-2.1,17.7,8.7,31.9,26.8,34.6
	c29.5,4.3,49.5-23.1,73-35c28.6-14.3,60.9-5.5,90.9-13.1c23.8-6.1,44.3-21.3,57.1-42.3C1294.2,906.5,1293.3,904.2,1292.4,905.6
	L1292.4,905.6z"/>
<path class="st0" d="M1377.6,1093.7c13.2,35.2-11.1,67.9-41.9,83c-27.8,13.7-59.8,16.4-90,21c-21.3,3.2-54.4,1.8-68.6,21.2
	c-12.2,16.5-9.2,39.4-4.6,58.1c0.4,1.8,2.3,1.2,2.2-0.5c-1.2-19.9-4.2-45.8,16.3-57.5c13.2-7.5,33.9-7.2,48.8-9.4
	c28.4-4.3,58-7.3,85.1-17.4c38.3-14.4,75.7-57.2,54.3-99.8C1378.3,1090.9,1377.3,1092.6,1377.6,1093.7L1377.6,1093.7z"/>
<path class="st0" d="M1208.6,1422.9c35.5,74.5,17.6,149.1-10.9,222.8c-1.5,3.8,3,9.7,5.1,4.3c27.9-69.9,55-161.7,8.4-230.4
	C1209.6,1417.1,1207.8,1421.3,1208.6,1422.9z"/>
<path class="st0" d="M1201.6,1649.3c1.1-35.7-6.7-74.3-14.8-108.9c-7.9-33.7-19.8-67.1-40.4-95.2c-4-5.5-7.6,4.2-5,8
	c20.5,29.9,33,62.9,41,98.2c7.3,32.3,8.1,66.6,17,98.4C1199.9,1651.8,1201.6,1651.1,1201.6,1649.3L1201.6,1649.3z"/>
<path class="st0" d="M1224.7,1581.5c31.8-9.4,60.6-32.9,68-66.4c6.7-30.7-9.4-63.1-33.2-82.3c-33.1-26.8-72.3-12.4-106.9,3.5
	c-23.1,10.7-46.2,20.3-70.9,26.7c-27.2,7.1-54.1,8.8-81.9,11.8c-4.7,0.5-4.5,10.4,0.3,10.6c36.1,2,74.7-6.9,108.6-18.6
	c35.3-12.1,70.8-38.5,109.2-38c34.6,0.4,66.8,34,68.8,68.3c2.2,38.8-32.4,63-63.3,77.8C1220.8,1576.2,1221.4,1582.4,1224.7,1581.5
	L1224.7,1581.5z"/>
<path class="st0" d="M818.1,1581.5c39,3.9,51.4-43,83.9-55c19-7,39.9-6.5,58.5,1.3c13.7,5.7,27.5,14.4,42.8,14.5
	c14.3,0.1,27.7-7.9,40.4-13.4c18.4-7.9,39-9.8,58.2-3.1c34.5,12.2,46.3,59.5,86.6,59.2c5,0,4.8-11.4-0.3-11.4
	c-24.1,0.2-37.5-19.1-52.1-35.3c-11.4-12.6-23.9-21.9-40.7-25.7c-13.7-3.1-28.8-3.2-42.3,1c-16.6,5.1-32.2,17.3-50,17.5
	c-16.8,0.2-32.3-11.4-47.8-16.6c-14.7-5-31.4-5.1-46.4-1.2c-38.5,10-50.4,60.5-90.9,63.9C816.1,1577.4,816.3,1581.3,818.1,1581.5
	L818.1,1581.5z"/>
<path class="st0" d="M1302.6,1341.6c11-36.1,39.3-61.8,66.7-86.3c20.3-18.2,52.3-43,57-71.6c0.5-3.1-1.9-9.8-5.9-6.6
	c-6.1,4.9-9,11.9-13.5,18.2c-6.3,8.6-13.3,16.6-20.9,24c-12.7,12.7-26.3,24.4-39.2,36.9c-23.4,22.9-43.6,50.1-47.1,83.6
	C1299.5,1341.7,1301.7,1344.6,1302.6,1341.6L1302.6,1341.6z"/>
<path class="st0" d="M1360.1,1252.6c11,49.2,16.3,97.8,20.6,147.9c0.1,1.5,1.6,1.5,1.6,0c1.8-49.6-6.3-101.4-19.2-149.2
	C1362.2,1248.3,1359.6,1250.1,1360.1,1252.6L1360.1,1252.6z"/>
<path class="st0" d="M1341.8,1272.4c3.6,35.6,8.6,71,11.5,106.8s2.3,71.8,5.8,107.3c0.3,2.9,3,2.8,3.1-0.1
	c1.9-36.5-2.5-74.3-5.6-110.6c-3-34.6-6-69.8-12.3-103.9C1344,1269.6,1341.6,1270.4,1341.8,1272.4z"/>
<path class="st0" d="M1320.8,1297.3c1.1,52.5,6.6,104.7,5.4,157.3c-1,55.7-9.7,111-25.8,164.3c-0.8,2.7,2.2,7.1,3.7,3.1
	c18.4-50.1,24.6-104.8,26.2-157.9c1.7-55.4-0.4-112.2-7.4-167.3C1322.6,1295,1320.7,1295.7,1320.8,1297.3z"/>
<path class="st0" d="M1266.6,1411.1c38.1,23.6,64.1,73.4,48.6,117.8c-14.9,42.7-57.9,71.4-100.2,81.3c-2.5,0.6-2,7.2,0.8,6.8
	c47.3-5.7,96.1-47.3,106.8-94.2c10.1-44.2-15.1-95.3-54.8-116.1C1265.8,1405.8,1265.2,1410.3,1266.6,1411.1z"/>
<path class="st0" d="M1192.6,1612.2c-24-2.7-43.2-10.4-62.1-25.7c-13.8-11.2-24.9-27.8-40.3-36.8c-12.7-7.4-29.8-7.3-43.3-2
	c-14.2,5.6-27.9,20.4-43.8,20.5c-15,0.1-28.9-13.8-42-19.6s-29.8-6.3-42.6,0.1c-15.9,8-26.9,25.2-40.4,36.5
	c-19.4,16.3-39.1,25-64.5,26c-3.2,0.1-2.9,6.7,0.2,7.1c37.8,5.2,67.5-25.7,92-49.6c17.3-16.8,38.7-19.5,59.8-8.3
	c11.5,6.1,24,17,37.7,17c12.9,0,24.9-9.9,35.7-15.8c20.2-11.1,42.2-11.2,59.6,5.6c24.9,24,55.3,58.3,94.1,50.2
	C1194.8,1616.8,1194.8,1612.4,1192.6,1612.2L1192.6,1612.2z"/>
<path class="st0" d="M1269.7,1406.2c-39.4-21.9-86.3-13.1-124.8,6.4c-21,10.6-40.8,23.7-63.4,30.9c-26.4,8.4-54.4,8.9-81.9,9.4
	c-3,0-2.9,6.8,0.2,6.8c23.6-0.2,47.4-0.8,70.5-6c21.9-5,41.1-15.2,60.6-25.9c44.1-24.4,89.3-35.7,138.1-17.1
	C1271.2,1411.5,1271.3,1407.1,1269.7,1406.2L1269.7,1406.2z"/>
<path class="st0" d="M1143.4,1778.2c-17.5-56.1-86.5-81.1-140.3-81.1c-52.8,0-124.7,24.4-140.5,80.9c-0.9,3.1,2.3,8.2,4.3,3.6
	c22.8-52.3,81.4-76.7,136.5-76.3c54.2,0.4,115.4,22.8,136.7,76.1C1141.6,1785.3,1144.2,1780.7,1143.4,1778.2z"/>
<path class="st0" d="M1120.8,1783.8c-48.3-85.8-185.5-80.3-236-1c-1.5,2.4,1,8.2,3.3,4.7c52.3-81.7,176-76.3,230.9-1
	C1120.5,1788.5,1121.5,1785,1120.8,1783.8L1120.8,1783.8z"/>
<path class="st0" d="M1087.7,1786.4c-18.8-26.7-53.6-34-84.6-34c-29.2,0-68.6,6.3-84.4,34.1c-0.7,1.3,0.2,6,2.2,4
	c22.1-22.6,48-30.7,79.5-31.3c30.7-0.5,64.9,5.4,84.9,31C1087.3,1792.9,1088.9,1788.3,1087.7,1786.4L1087.7,1786.4z"/>
<path class="st0" d="M1330.9,927.8c-4.6,9.7-10.1,18.5-17.9,25.9c-6.7,6.3-14.4,11.2-21.2,17.1c-1.3,1.1-0.9,5.4,1.4,4.5
	c18.3-6.9,32.3-29,39.4-46.2C1333,928,1331.7,926.1,1330.9,927.8L1330.9,927.8z"/>
<path class="st0" d="M1308.2,930.4c-9,20-23.1,33.8-39.8,47.5c-1,0.8-0.5,4.2,1,3.4c19-10,32.7-30,40.3-49.5
	C1310.2,930.6,1308.9,928.8,1308.2,930.4L1308.2,930.4z"/>
<path class="st0" d="M1287.3,934.7c-13,23.8-31.1,39.8-51.5,56.9c-1,0.9-0.5,4.8,1.2,3.8c22.3-12.8,39.8-36.4,51.7-58.8
	C1289.2,935.6,1288.1,933.2,1287.3,934.7L1287.3,934.7z"/>
<path class="st0" d="M1263,945.6c-6.4,11.1-13.8,21.7-22.1,31.4c-7.8,9-17.2,16.2-25.5,24.7c-0.7,0.8-0.5,4,1,3.2
	c20.7-12,37.5-36.1,48.4-56.8C1265.5,946.8,1264.2,943.6,1263,945.6L1263,945.6z"/>
<path class="st0" d="M1206.5,978.4c-12.3,3.8-20.6,13.2-28.9,22.6c-9.8,11-17.5,19.2-32.1,23.4c-1.8,0.5-1.3,4.4,0.5,4.6
	c12.2,1.4,22-8.9,29.1-17.5c9.6-11.6,17.1-25,31.9-30.7C1208,980.5,1207.7,978.1,1206.5,978.4L1206.5,978.4z"/>
<path class="st0" d="M1224.3,977.9c-15.3,9.8-32.8,24.1-41.4,40.4c-0.6,1.1,0.2,5.2,1.8,3.4c6.6-7,12-15.3,18.4-22.5
	s14.1-13.3,21.8-19.3C1225.5,979.3,1225.1,977.4,1224.3,977.9z"/>
<path class="st0" d="M1110.2,997.3c-8.3,11-23.8,17.3-37.1,11.5c-13.1-5.7-17.1-15.9-22.2-28c-0.9-2.1-2.9-1.2-3.2,0.7
	c-2.1,14.2,9.4,29.1,22.8,32.9c15.8,4.5,31.6-2.5,40.6-15.8C1111.6,998.1,1110.9,996.5,1110.2,997.3L1110.2,997.3z"/>
<path class="st0" d="M1109.7,1011.7c-11.1,6-22.5,11.2-35.4,9c-13.5-2.3-19.3-12.1-23.2-24.2c-0.8-2.4-2.9-1-3.3,0.7
	c-2.9,12.2,7,23.1,17.7,27.4c15.8,6.3,32.4-0.8,44.8-10.9C1110.8,1013.3,1110.5,1011.3,1109.7,1011.7L1109.7,1011.7z"/>
<path class="st0" d="M1107.2,1023.7c-10,2.7-19.5,7.9-30.2,7.5c-12-0.5-23-8.3-25.9-20.2c-0.9-3.8-4.1-2.3-4.3,1
	c-1.6,33.7,43.4,25.1,60.9,14C1108.5,1025.5,1108.4,1023.4,1107.2,1023.7L1107.2,1023.7z"/>
<path class="st0" d="M1133.7,1009c-15,19.8-60.5,52.2-79.1,17.1c-2.2-4-6-1.4-5.7,2.5c1.3,17.2,19.2,22.9,34.4,20.3
	c21.8-3.7,39.6-20.5,51.7-38C1135.7,1010,1134.7,1007.6,1133.7,1009L1133.7,1009z"/>
<path class="st0" d="M1259,1259.2c17.8,23.4,30.4,46.2,35.3,75.6c2.5,14.5,2.9,29.2,1,43.8c-1.7,13-6.8,24.6-9.7,37.2
	c-0.5,2.3,1.9,6.5,4.1,3.4c15.6-22.1,15.1-58.9,10.5-84.4c-5.1-28.4-19.2-58.8-39.5-79.4C1259,1253.8,1258.1,1258,1259,1259.2
	L1259,1259.2z"/>
<path class="st0" d="M1259.5,1253.8c-4.5,19.1-7.6,36.6-18.2,53.6c-7.8,12.5-18,23.3-28.2,33.9c-16.3,17-35.9,35.4-42.2,58.9
	c-0.8,3,2.6,11.9,5.6,6.2c15.2-28.6,37-48.6,57-73.5c17.2-21.3,30.5-51,27.6-78.9C1260.9,1252.9,1259.8,1252.4,1259.5,1253.8
	L1259.5,1253.8z"/>
<path class="st0" d="M1268.4,1306c14.6,32.6,13.3,67.4-7.3,97.3c-1.3,1.9,0.8,6.6,2.7,3.9c20.7-30.2,24.4-70.7,6.2-103
	C1269.1,1302.6,1268,1305,1268.4,1306L1268.4,1306z"/>
<path class="st0" d="M1268.1,1305.3c2,16.6-9.2,31.5-20.2,42.3c-6.1,6-12.6,11.6-18.4,17.9c-8,8.8-13.5,18.1-16.2,29.8
	c-0.9,3.8,3.7,6.5,4.6,1.8c7.3-37.1,58.8-50.4,52.6-92.9C1270.2,1301.5,1267.8,1303.2,1268.1,1305.3L1268.1,1305.3z"/>
<path class="st0" d="M1365.8,1116c14.1-26.1,19.9-56.4,17.3-85.9c-1.3-15.4-5.5-30-9.9-44.8c-6.9-23.2-10-43.3-3.3-67.1
	c0.6-1.9-1.2-7.1-3.4-3.8c-15,22.9-4.5,53.2,3,76.8c13.5,42.2,12,82-5.4,122.8C1363.6,1115.1,1364.9,1117.7,1365.8,1116L1365.8,1116
	z"/>
<path class="st0" d="M1240.5,1205.8c13.4,53.2-18.2,97.6-56.1,131.4c-27,24.1-53.1,47.5-54.8,86.4c-0.1,2.4,2.8,4.4,3.8,1.5
	c3.8-11.1,4.9-22.9,9.4-33.9c6-14.6,16.2-25.6,27.9-35.9c16.3-14.4,32.8-28.3,46.5-45.3c23.7-29.5,38.4-68.7,26-106
	C1242.3,1201.5,1240,1204.1,1240.5,1205.8L1240.5,1205.8z"/>
<path class="st0" d="M1085,1718.7c25-34.6,50.6-74.3,64-115.1c0.7-2.2-1.9-7.9-3.7-4.2c-9.8,19.6-18,39.9-28.3,59.3
	s-22.8,37.6-34.6,56.1C1081.1,1716.7,1083,1721.4,1085,1718.7L1085,1718.7z"/>
<path class="st0" d="M1093.2,1650c12.1-16.2,28.9-39.8,28.8-60.9c0-1.9-2-4.5-3.6-2.2c-5.4,7.8-6.7,18.7-10.2,27.6
	c-4.5,11.6-10,22.8-16.4,33.4C1091.1,1648.9,1092,1651.5,1093.2,1650L1093.2,1650z"/>
<path class="st0" d="M1081.2,1622.4c11-13,26.4-35,23.4-53.1c-0.3-1.8-2.4-3.4-3.6-1.3c-4.2,7.1-4.2,16.5-6.9,24.3
	c-3.5,9.8-8.3,19-14.4,27.4C1079,1620.6,1080,1623.8,1081.2,1622.4z"/>
<path class="st0" d="M1146.6,1661.4c5.6-15.2,12.1-30,18.3-45c1.6-3.8-3.4-9.4-5-4.2c-5,15.9-9.6,31.8-15.2,47.6
	C1144.2,1661.2,1145.9,1663.4,1146.6,1661.4L1146.6,1661.4z"/>
<path class="st0" d="M1168.3,1657.6c3.9-6.8,7.6-13.1,12.7-19.1c4.2-5.3,7.7-11.1,10.4-17.3c1.6-3.5-2.9-11.3-5.5-6.1
	c-1,2.1-1.9,3.1-2.2,5.4c-0.2,1.2,0.3,4.5,2.2,4.2s2.7-0.2,4.3-1.7l-4.3-8c-3.7,6.2-6.9,12.7-9.5,19.4c-2.8,7.3-6.7,13.9-10,20.9
	C1165.7,1656.6,1167.2,1659.4,1168.3,1657.6L1168.3,1657.6z"/>
<path class="st0" d="M1005.8,964.7c-0.1-33.5,5.5-67.8,3.5-101.3c-0.3-4.7-5.5-7-6.4-1.2c-5.2,33.3-0.5,69,0.8,102.5
	C1003.7,966.8,1005.8,966.8,1005.8,964.7L1005.8,964.7z"/>
<path class="st0" d="M660.9,1435.4c-0.9,24.6-0.4,49.2,0.8,73.7c0.8,16.2-0.1,36.4,9.1,50.5c1.6,2.5,3.4-1.1,3-2.8
	c-10.2-39.1-9.3-81.3-11.2-121.5C662.5,1433.8,661,1433.9,660.9,1435.4L660.9,1435.4z"/>
<path class="st0" d="M640.1,1341.2c-8.2,35.4-12.6,74.4-5.6,110.4c0.4,2,2.2,1.1,2.2-0.5c1.5-36.6,0.7-72.7,4.9-109.3
	C641.8,1340.5,640.5,1339.6,640.1,1341.2L640.1,1341.2z"/>
<path class="st0" d="M1344.3,1435.4c-1.8,40-1,81.9-11.1,120.9c-0.4,1.6,1,6.2,3,3.3c9.3-14.2,8.1-34.2,9-50.6
	c1.2-24.5,1.7-49.1,0.8-73.6C1346,1433.8,1344.5,1433.9,1344.3,1435.4L1344.3,1435.4z"/>
<path class="st0" d="M1365.3,1341.8c4.3,36.6,3.4,72.6,4.9,109.3c0.1,1.7,1.9,2.4,2.3,0.4c7-35.9,2.5-75-5.7-110.4
	C1366.4,1339.5,1365.2,1340.6,1365.3,1341.8L1365.3,1341.8z"/>
<path class="st0" d="M626.2,1266.2l-0.2-1.7c0-0.7-0.9-1.1-1-0.2c0,0.6-0.1,1.1-0.1,1.7C624.8,1267.3,626.3,1267.6,626.2,1266.2
	L626.2,1266.2z"/>
<path class="st0" d="M627.4,1251.9c-7.2,20.6-13.8,45.4-10.8,67.3c0.3,2.5,2.9,2.1,3.3-0.1c4.2-22,4.3-44.2,9.2-66.3
	C629.3,1251.8,628,1250.4,627.4,1251.9L627.4,1251.9z"/>
<path class="st0" d="M942.6,1579.1c12.6,21.3,31.8,40,57.3,42.6c28.7,2.9,43.6-22.2,58.5-42.5c0.6-0.8-0.3-3.2-1.1-2.1
	c-13.8,16.7-31.8,32.2-54.8,31.4c-22.8-0.8-45.7-13.4-58.6-31.5C942.9,1575.5,942,1578.1,942.6,1579.1L942.6,1579.1z"/>
<path class="st0" d="M911.6,1210.5c-0.6,13.6,3.6,28.2,9.7,40.2c5.2,10.2,14.7,24.9,25.9,28.9c4,1.4,4.7-6.1,2.9-8.1
	c-7.6-8.7-17-14.5-23.6-24.4c-7.8-11.6-10.8-23.5-12.9-37.1C913.4,1208.1,911.7,1209,911.6,1210.5z"/>
<path class="st0" d="M894.6,1225.8c-1.3,15.4,1,43.2,16.7,51.5c2,1.1,2.4-3,1.9-4c-3-7.1-8.3-13-11.4-20.2
	c-3.7-8.5-5.5-17.7-5.3-26.9C896.6,1224.7,894.8,1224.1,894.6,1225.8L894.6,1225.8z"/>
<path class="st0" d="M904.6,1216.9c-3.4,14-1.9,28.7,4.4,41.6c5.8,11.6,19.6,26.8,33.8,25.3c3.8-0.4,4.1-7.4,1.4-9.3
	c-9-6.4-18.5-9.8-26-18.5c-9.7-11.3-13.9-23.1-11.6-37.9C906.8,1216.8,905,1214.9,904.6,1216.9L904.6,1216.9z"/>
<path class="st0" d="M902.6,1319.2c17,16,33.7,33.2,52.1,47.5c1.4,1.1,1.8-1.9,1-2.8c-16.2-16.8-34.7-31.6-52.4-46.7
	C902.3,1316.4,901.9,1318.6,902.6,1319.2L902.6,1319.2z"/>
<path class="st0" d="M705.3,1103.6c29.6,27.6,72.7,43.3,112.4,30.5c1.2-0.4,1-3.4-0.4-3.4c-40.3-0.2-77.5-6.1-111-29.9
	C704.9,1099.9,704.5,1102.8,705.3,1103.6L705.3,1103.6z"/>
<path class="st0" d="M1089,1210.1c-2,13.1-4.7,24.3-12,35.6c-6.7,10.4-16.3,16.2-24,25.2c-1.9,2.2-2,10.4,2.7,8.8
	c11.5-4.1,21.4-19.8,26.5-30.3c5.7-11.7,9.6-25.7,9-38.8C1091.1,1208.9,1089.3,1208.2,1089,1210.1L1089,1210.1z"/>
<path class="st0" d="M1106.1,1226.2c0.3,9.3-1.6,18.5-5.3,27c-3.2,7.2-8.3,13.1-11.4,20.2c-0.5,1.2,0.1,5,2.1,4
	c7.3-3.9,11.6-14.5,13.9-22.1c2.8-9.4,3.7-19.3,2.7-29.1C1107.9,1224.3,1106.1,1224.3,1106.1,1226.2L1106.1,1226.2z"/>
<path class="st0" d="M1096.1,1218.2c2.3,15.2-2.4,27.5-12.5,38.8c-7.3,8.1-16.7,11.5-25.3,17.7c-2.8,2-1.8,8.9,1.9,9.2
	c14.4,1.4,28.2-14.1,33.9-25.9c6-12.7,7.4-27.1,4.1-40.7C1097.6,1215.1,1095.8,1216.5,1096.1,1218.2L1096.1,1218.2z"/>
<path class="st0" d="M1099.3,1317.2c-17.7,15.1-36.3,29.9-52.4,46.7c-0.8,0.9-0.3,3.9,1.1,2.8c18.5-14.3,35.2-31.4,52.1-47.5
	C1100.8,1318.6,1100.3,1316.4,1099.3,1317.2L1099.3,1317.2z"/>
<path class="st0" d="M1296.3,1101c-33.5,23.7-70.8,29.7-111,29.8c-1.4,0-1.4,3-0.2,3.4c39.7,12.7,82.8-2.9,112.4-30.6
	C1298.3,1102.8,1297.8,1100,1296.3,1101L1296.3,1101z"/>
<path class="st0" d="M902.7,1064c3,5,7.2,8.8,9.7,14.1c2.3,5,5.9-0.8,4.6-4.3l-5-13.2c-1.2,1.9-2.4,3.9-3.6,5.8
	c1.8,1.3,2.8,3.3,2.9,5.5c0.1,3,3.9,6.3,5.2,2l2.5-8.8l-5.1-0.9c1.2,8.3,1.8,17.1,3.8,25.3c1.1,4.3,5.4,2.9,5.2-1.2
	c-0.4-8.8-2.4-17.8-3.7-26.5c-0.4-2.9-4.1-4.3-5.1-0.9l-2.5,8.8l5.2,2c0-4.9-2.1-9.5-5.8-12.6c-3.3-2.8-4.3,3.9-3.6,5.8
	c1.7,4.4,3.3,8.8,5,13.1l4.6-4.3c-2.5-5.3-6.6-12.7-12.7-14.3C901.8,1059,901.8,1062.7,902.7,1064L902.7,1064z"/>
<path class="st0" d="M1090.4,1062.6c-2.6,7.5-4.3,15.1-6.2,22.8l5,0.9c-0.4-3.7,0.5-7.4,2.7-10.5c1.9-2.7,5.6-6.7,9.3-6.5
	c-0.6-2.7-1.1-5.5-1.7-8.2c-5.8,5.8-11.1,13-12.7,21.2c-0.3,1.4,1.3,5.6,3.2,3.5c4.8-5.3,8.1-11.7,12.7-17.2
	c2.1-2.4,1.2-10.4-3.1-7.5c-2.4,1.6-5.1,2.4-7.3,4.4c-1.9,1.7-3.5,3.6-4.8,5.8c-2.7,4.6-3.8,9.8-3.3,15.1c0.4,3.7,4,5.4,5,0.9
	c1.8-7.6,3.5-15,4.5-22.7C1094,1062.5,1091.5,1059.4,1090.4,1062.6L1090.4,1062.6z"/>
<path class="st0" d="M952.5,1047.4c2.6-2.7,6-5.6,5.9-9.7c0-0.8-0.4-2.3-1.4-2.6c-2-0.5-2.9,0.9-4,2.4c-1.1,1.6-2.1,3.3-3.1,5
	c-0.7,1.2-0.7,2.7-0.1,4C950.4,1047.5,951.5,1048.3,952.5,1047.4L952.5,1047.4z"/>
<path class="st0" d="M1053.6,1029.6c-4.7,2.3-4.6,10-1.5,13.6c1.4,1.6,3.3,1.3,4-0.9c0.9-2.9,0.2-7-3-8.1c-3.4-1.3-5.2,2.7-5.1,5.5
	c0.1,2.3,2.2,7.2,5.2,4.9c1.3-1.2,1.7-3.1,1.1-4.7c-0.2-0.5-0.5-1-0.9-1.5c-0.2-0.3-0.5-0.6-0.8-0.8c0.5,1.3,0.7,1.5,0.5,0.8
	c0,0.7,0,1.4,0,2.1c-0.2,2.5-1.8,1.4-1.8-0.3l0.3-2c0,0.1-0.1,0.3-0.1,0.4l4-0.9c-1-1.1-0.9-1.5,0-3
	C1056.2,1033.2,1056,1028.4,1053.6,1029.6L1053.6,1029.6z"/>
<path class="st0" d="M788.7,1481.1c2.2-9.2,4.5-18.1,8.5-26.8s9.8-15.5,15.1-23.2c1.8-2.7-0.8-9.2-3.8-5.5
	c-11.7,14.6-19.6,36-22.3,54.5C785.9,1482.2,788,1483.6,788.7,1481.1L788.7,1481.1z"/>
<path class="st0" d="M788.4,1506.7c0.7-16.2,9.2-17.2,18.5-25.7c2.9-2.6,5.1-4.7,5.7-8.8s-0.6-11-0.3-15c0.6-10.4,3.9-14,13.2-18.4
	c4.2-2,8.8-3.1,13.1-4.9c1-0.4,1-3.1-0.3-3c-15.7,1.1-29,11.6-30.4,27.5c-0.7,8.2,1.5,16.3-4.6,22.8c-2.6,2.8-6.4,4.2-9,7.1
	c-4.7,5.3-6.3,11.6-6.5,18.5C787.7,1507.5,788.4,1507.4,788.4,1506.7L788.4,1506.7z"/>
<path class="st0" d="M835.4,1452.1c7.4,12.5-4.7,23.3-6.4,34.6c-0.9,5.7,0.5,10.9,0.6,16.6c0.2,11.4-3.5,20.7-9.4,30.3
	c-0.4,0.7,0.2,2.9,1,1.9c10.8-12.6,10.4-24.9,10.1-40.6c-0.3-15.1,13.6-29.6,4.6-43.8C835.6,1450.2,835,1451.5,835.4,1452.1
	L835.4,1452.1z"/>
<path class="st0" d="M799.9,1503.5c0.9,18.2-16.7,25.4-19,42.6c-1.5,11.2-2,22.3,2.6,32.8c0.6,1.5,1.9,0,1.6-1.1
	c-2.5-8.7-2.9-17.2-2.2-26.2c0.8-11.1,6.4-18,12.3-27.2c4.5-6.9,6.3-12.7,5.7-21C800.7,1502.6,799.9,1502.6,799.9,1503.5
	L799.9,1503.5z"/>
<path class="st0" d="M786.4,1534.5c-0.3,7.3,2.8,14.4,8.4,19.1c6.5,5.8,12.5,7.4,14.7,17.2c1.7,7.4-0.3,14.8-1.2,22.3
	c-0.1,1.2,1.2,2.9,1.8,1.1c3.3-8.6,4.8-19.3,1.7-28.2c-1.2-3.6-3.4-6.7-6.4-9c-2.6-2-5.8-3-8.5-4.9c-6.3-4.5-8.7-10.3-9.6-17.8
	C787.3,1533.5,786.5,1533.9,786.4,1534.5L786.4,1534.5z"/>
<path class="st0" d="M1146.6,1444c1.1,7,5.6,11.4,11.4,15c8.7,5.4,26.6,9.8,24.8,23.4c-0.1,0.6,0.5,1,0.7,0.3
	c5.3-22.7-29.3-23.1-34.9-40C1147.9,1440.7,1146.4,1442.7,1146.6,1444L1146.6,1444z"/>
<path class="st0" d="M1201.2,1520.4c-2.2-14.1-1.7-24.8,3.6-38c1.8-4.5,2.7-5.6,2.5-11.2c-0.3-14.2-5.2-30.9-9.1-44.4
	c-0.6-2-2.1-0.7-1.9,0.9c1.1,9.6,3.2,19,5,28.4c2.3,11.9,0.5,21-2.3,32.4c-2.6,10.7-0.8,21.8,1.2,32.4
	C1200.4,1521.9,1201.3,1521.2,1201.2,1520.4L1201.2,1520.4z"/>
<path class="st0" d="M1217.3,1537.8c-2.8-11.3,3.8-22.1,2.8-33.5c-0.2-1.9-1.7-3.6-1.9-5.3c-3.1-21.6,0.5-26.9,10.2-42.8
	c0.4-0.7-0.2-3.2-1.1-2.1c-8.2,9.8-16.3,23-14.5,36.5c1.5,10.8,5.7,19.1,4.3,30.6c-0.8,6.5-2.2,10.6-0.5,17.1
	C1216.7,1539,1217.4,1538.5,1217.3,1537.8z"/>
<path class="st0" d="M1186.4,1543.6c1.2,6,3.8,10.8,9,14.3c1.4,1,5.5,1.7,6.4,2.8c2.3,2.7-0.2,6.5-0.3,9.7c-0.1,4.3,1.1,8.2,4.5,11
	c1.9,1.6,3.7,2,5.2,4.1c3.3,4.5,3.1,13.8,4.7,19.2c0.5,1.6,2.1,1.2,2-0.5c-0.6-7.7-2.1-15.3-3.6-22.8c-0.2-0.9-0.8-1.9-1.9-1.6
	c-7.8-6-10-12.5-6.7-19.2c0.2-0.7,0.1-1.7-0.7-1.8c-8.9-1.3-15.1-6.3-17.8-15.6C1187,1542.3,1186.2,1542.8,1186.4,1543.6
	L1186.4,1543.6z"/>
<path class="st0" d="M954.1,1337.3c-7.1,21.9,4.6,50.3,25.2,60.6c0.9,0.5,1-1.6,0.5-2c-18.8-15.6-26.8-33.8-25-58.2
	C954.8,1337.3,954.4,1336.7,954.1,1337.3L954.1,1337.3z"/>
<path class="st0" d="M960.9,1346.3c1,19.1,4.5,49.3,29,51.4c1.1,0.1,1-2.1,0.2-2.4c-21.1-8.3-25.7-28.7-28.3-49.1
	C961.6,1345.3,960.8,1345.6,960.9,1346.3L960.9,1346.3z"/>
<path class="st0" d="M971.3,1353.6c1.3,13.8,8.3,58.1,31.1,52.3c1-0.2,0.8-2.4-0.1-2.7c-21.8-5.9-26.1-30.3-30-49.8
	C972.2,1352.4,971.3,1352.8,971.3,1353.6L971.3,1353.6z"/>
<path class="st0" d="M982.2,1362.1c1,15.7,8.2,34.1,22.9,41.8c1.3,0.7,1.3-2.1,0.7-2.7c-11.4-11.3-20.5-22.4-22.4-39.1
	C983.3,1361,982.1,1361,982.2,1362.1L982.2,1362.1z"/>
<path class="st0" d="M1049,1337.6c1.8,24.3-6.4,42.8-25,58.3c-0.5,0.5-0.3,2.4,0.6,2c20.6-10.2,32.2-38.7,25.1-60.6
	C1049.5,1336.8,1049,1337.2,1049,1337.6L1049,1337.6z"/>
<path class="st0" d="M1042,1346.1c-2.6,20.5-7.2,40.8-28.4,49.1c-0.8,0.3-0.8,2.5,0.3,2.4c24.6-2.1,28-32.3,29-51.4
	C1042.9,1345.6,1042.1,1345.4,1042,1346.1L1042,1346.1z"/>
<path class="st0" d="M1031.4,1353.4c-3.9,19.6-8.2,43.9-30,49.8c-0.9,0.3-0.8,2.5,0.1,2.7c22.8,5.8,29.7-38.3,31-52.1
	C1032.5,1352.9,1031.6,1352.3,1031.4,1353.4L1031.4,1353.4z"/>
<path class="st0" d="M1020.4,1361.9c-1.8,16.7-11,27.9-22.5,39.3c-0.6,0.6-0.5,3.3,0.8,2.7c14.7-7.6,21.8-25.9,22.8-41.5
	C1021.7,1361.4,1020.6,1360.6,1020.4,1361.9z"/>
<path class="st0" d="M1066.9,1126.7c-3.2-12-7.2-23.6-5.9-36.3c1.6-14.6,11.5-31.1,28.7-27.8c1.4,0.3,1.5-2.3,0.4-2.8
	c-13.7-6.7-25.6,5.7-30,18c-5.8,16.3-0.6,34.3,5.8,49.6C1066.3,1128.2,1067,1127.3,1066.9,1126.7L1066.9,1126.7z"/>
<path class="st0" d="M1072.8,1119.1c-4.2-11.3-5.5-22.8-1.4-34.3c3.5-10.1,10.8-20.4,22.8-17.6c1.5,0.3,1.6-2.3,0.7-3
	c-9.9-8.3-20.8,4.8-24.5,13.5c-5.7,13.6-5.1,29,1.6,42.1C1072.5,1120.7,1073,1119.7,1072.8,1119.1L1072.8,1119.1z"/>
<path class="st0" d="M937.8,1127.3c6.4-15.3,11.6-33.3,5.7-49.6c-4.4-12.2-16.3-24.6-30-17.9c-0.9,0.4-0.9,3.1,0.3,2.8
	c14.2-2.7,24.2,8.2,27.7,21c4,14.7-0.8,28.7-4.6,42.8C936.7,1127.1,937.3,1128.2,937.8,1127.3L937.8,1127.3z"/>
<path class="st0" d="M931.6,1120c6.5-12.6,7.3-27.4,2.3-40.7c-3.5-9-14.7-23.8-25.2-15c-0.9,0.8-0.6,3.2,0.9,2.9
	c13.1-3.1,20.7,9.4,23.6,20.3s1.5,21.2-2.3,31.6C930.7,1119.6,931.2,1120.7,931.6,1120L931.6,1120z"/>
<path class="st0" d="M970.2,1007.6c-4,16.1-9.8,44.8,8.7,55c1,0.5,1.1-1.5,0.7-2c-13-16.7-12.2-32.4-8.3-52.6
	C971.4,1007.1,970.4,1006.6,970.2,1007.6L970.2,1007.6z"/>
<path class="st0" d="M979.5,1004.7c-2.3,10.1-9.9,58.6,12,55.4c1.2-0.2,1.4-2.8,0.2-3.1c-18.7-4.7-13.9-37.9-11.2-51.8
	C980.7,1004.2,979.7,1003.6,979.5,1004.7L979.5,1004.7z"/>
<path class="st0" d="M990.8,992.2c-5.3,20.4-11.5,48.8,2.4,67.1c1.1,1.5,1.9-1,1.5-1.9c-8.6-22.3-6.8-41.6-3.1-64.7
	C991.8,992.1,991.1,991.3,990.8,992.2L990.8,992.2z"/>
<path class="st0" d="M1035.1,1008c3.8,20.3,4.7,35.7-8.4,52.6c-0.4,0.5-0.1,2.5,0.8,2c18.5-10.1,12.6-38.9,8.6-55
	C1035.8,1006.5,1034.9,1007.2,1035.1,1008L1035.1,1008z"/>
<path class="st0" d="M1025.7,1005.1c2.8,14,7.6,47.1-11.3,51.8c-1.3,0.3-0.8,2.9,0.3,3.1c21.9,3.2,14.3-45.4,11.9-55.4
	C1026.5,1003.6,1025.6,1004.2,1025.7,1005.1L1025.7,1005.1z"/>
<path class="st0" d="M1014.6,992.7c3.7,23.2,5.4,42.4-3.1,64.7c-0.4,1,0.5,3.3,1.6,1.8c13.8-18.2,7.6-46.8,2.4-67
	C1015.3,991.3,1014.5,991.9,1014.6,992.7L1014.6,992.7z"/>
<path class="st0" d="M986.4,933.4c-1,15.6,0.8,31,6.3,45.6c4.4,11.7,6.1,22.5,8,34.8c0.8,5,1.6,7,4.1,11.4c0.9,1.6,1.8-1,1.5-1.8
	c-4.3-13-2.2-25.8-7.6-38.5c-7.1-17-11.7-32.7-11.4-51.4C987.3,932.6,986.5,932.6,986.4,933.4L986.4,933.4z"/>
<path class="st0" d="M1020.8,934.9c0.1,32-24.3,62.5-15.4,94.7c0.5,1.7,2.3,1.2,2.1-0.5c-3.3-32.9,16-61.6,14.3-94.2
	C1021.8,934,1020.8,934,1020.8,934.9L1020.8,934.9z"/>
<path class="st0" d="M1237.5,1023.4c-59,6.3-141.7,40.3-151.2,107.9c-0.5,3.4,3.2,8.1,5.3,3.2c12.7-30.8,27.7-55.7,56.1-74.7
	c27.4-18.4,58.5-26,90.2-33.6C1238.8,1025.8,1238.6,1023.2,1237.5,1023.4L1237.5,1023.4z"/>
<path class="st0" d="M1288.1,1026.3c20.1,10.2,53.4,12.4,71.4-3.6c1.6-1.4,1.2-7.2-1.8-6c-11.6,4.5-20.8,11.4-33.8,12.4
	c-12.1,1-24.1-1.3-35.4-5.6C1287.2,1022.9,1287,1025.8,1288.1,1026.3L1288.1,1026.3z"/>
<path class="st0" d="M770.4,1026.1c31.5,7.4,62.6,14.6,89.9,32.9c26.1,17.6,40,40.2,52.2,68.3c2.2,4.9,5.6-0.2,5.1-3.4
	c-9.3-64.4-91.5-95.1-147-100.5C769.5,1023.3,769.4,1025.9,770.4,1026.1L770.4,1026.1z"/>
<path class="st0" d="M719.6,1023.4c-11.3,4.2-23.3,6.6-35.4,5.6c-13.2-1.1-22.1-7.8-33.8-12.4c-3.1-1.2-3.1,4.8-1.5,6.1
	c18,15.9,51.3,13.7,71.4,3.5C721.2,1025.7,720.9,1022.9,719.6,1023.4z"/>
<path class="st0" d="M1185,1271.5c0.7-10.4,0-20.8,2.9-31c3-10.6,8.8-17.6,15.8-25.8c1.3-1.5,1.4-7.8-1.9-6.4
	c-21.7,9.6-21.5,44.2-19.3,63.7C1182.8,1274.3,1184.9,1273.2,1185,1271.5L1185,1271.5z"/>
<path class="st0" d="M1196.5,1267c1.3-11.8,2.9-22.9,7.5-34c4.4-10.6,11.5-16.2,18.6-24.6c1.1-1.3,1.8-6.9-1.3-6.5
	c-10.1,1.4-17,12.8-20.9,21.4c-5.8,13.2-5.8,28.9-6.2,43.1C1194.1,1268.3,1196.2,1269,1196.5,1267L1196.5,1267z"/>
<path class="st0" d="M1209.3,1260.1c2.2-12.1,3.3-22.8,9.5-33.8c4.6-8.3,11-14.1,18.1-20.3c1.5-1.3,1.6-7-1.4-6.7
	c-25.8,3.2-28.4,40.7-28.6,60.3C1206.9,1261.5,1208.9,1262.1,1209.3,1260.1L1209.3,1260.1z"/>
<path class="st0" d="M1224.8,1246.5c-0.9-8.9,1.6-17.8,6.9-24.9c4-5.5,10.3-8.8,14-14.3c1-1.5,0.7-5-1.6-5.2
	c-8.3-0.8-15.7,11.1-18.6,17.7c-3.8,8.7-4.7,18.3-2.7,27.6C1223.3,1249.5,1225,1248.1,1224.8,1246.5L1224.8,1246.5z"/>
<path class="st0" d="M823.5,1272c2.3-19.6,2.3-54-19.5-63.7c-2.9-1.3-3.3,4.5-2.1,5.9c6.4,7.3,12.2,13.7,15.4,23.1
	c3.8,11.1,3,22.6,3.7,34.1C821.1,1273.4,823.3,1274.3,823.5,1272z"/>
<path class="st0" d="M811.8,1266.6c-0.4-14.2-0.4-30-6.3-43.2c-3.9-8.7-10.8-19.9-20.9-21.3c-2.6-0.4-2.5,4.7-1.5,6
	c6.3,7.5,13.4,12.7,17.7,22c5.5,11.8,7.3,23.8,8.7,36.6C809.7,1268.8,811.9,1268.8,811.8,1266.6L811.8,1266.6z"/>
<path class="st0" d="M799,1259.6c-0.2-19.9-3-57-28.8-60.3c-3-0.4-2.5,5.5-1,6.7c7.5,6.5,13.9,12.4,18.6,21.3
	c5.7,10.7,6.8,21.1,8.8,32.8C797,1262.2,799,1261.4,799,1259.6L799,1259.6z"/>
<path class="st0" d="M783.1,1247.4c1.8-9.6,1.1-18.7-2.9-27.7c-2.9-6.6-10.4-18.4-18.6-17.6c-2.3,0.2-2.3,3.8-1.3,5.3
	c3.8,5.5,10,8.8,14,14.3c5.3,7.2,7.7,16,6.8,24.8C780.9,1248.2,782.7,1249.4,783.1,1247.4L783.1,1247.4z"/>
<path class="st0" d="M1334.6,1315.6c0.7-9.3,1.5-19.9,0-29.1c-0.3-2.1-2.5-1.9-2.9,0.1c-1.5,9-0.7,19.4,0,28.5
	C1331.9,1317.1,1334.3,1318.2,1334.6,1315.6L1334.6,1315.6z"/>
<path class="st0" d="M1358.5,1292.4c-0.7-10.2-0.7-21.7-4-31.4c-1.2-3.5-4.1-0.5-4.1,1.8c-0.2,10,3.2,20.6,5.6,30.2
	C1356.5,1295.2,1358.7,1294.5,1358.5,1292.4L1358.5,1292.4z"/>
<path class="st0" d="M1052.8,1198.8c2.2,12.3,3.5,24.4,1.3,36.9c-1.9,10.9-7.4,20.2-10.5,30.7c-0.7,2.3,1.1,7.4,3.7,4.1
	c14.3-18.1,13.4-51.7,6.9-72.6C1053.8,1196.4,1052.7,1197.8,1052.8,1198.8L1052.8,1198.8z"/>
<path class="st0" d="M948.4,1197.4c-6.7,23.4-4,48.3,8.9,69.1c3,4.8,5.8-3.4,4.1-6.6c-10.5-19.4-14.8-39.6-11.2-61.5
	C950.3,1197.4,948.9,1195.7,948.4,1197.4L948.4,1197.4z"/>
<path class="st0" d="M957.2,1148.8c7.9-19.8,13-40.6,15.3-61.8c1.5-14.7,2.9-34.8-12.3-42.3c-2.1-1-4.6,0.1-6.2,1.4
	c-4.4,3.6-5.5,6.3-6.4,11.8c-0.5,3.2,0.7,9.6,5.1,9.5c9.5-0.1,8.1,26.4,8.4,33.2c0.9,16-3.1,30.8-6.9,46.2
	C953.6,1149,956.1,1151.6,957.2,1148.8z"/>
<path class="st0" d="M771.9,1163.4c0,0,113.9-3.5,116.2,0s2.3,24.4,2.3,24.4l-7,31.4c0,0,7-27.9-24.4-38.3
	S799.8,1173.9,771.9,1163.4z"/>
<path class="st0" d="M741.9,1354.9c-1.7,13-2.2,39.3,10.2,47.7c2.4,1.6,3.6-2.1,3.2-3.9c-1.5-6.4-5.3-12.1-7.7-18.2
	c-3.3-8.3-4.4-16.3-4.1-25.2C743.5,1354,742.1,1353.5,741.9,1354.9z"/>
<path class="st0" d="M753.5,1361.3c-3,7.4-5,15.6-4.2,23.6c0.6,5.8,2.5,15.7,8.6,18.2c2.4,1,3-2.9,2.7-4.4c-0.8-5.3-4-9.9-5.4-15.2
	c-1.9-7-2.1-13.5,0.4-20.4C756.2,1361.5,754.4,1359,753.5,1361.3L753.5,1361.3z"/>
<path class="st0" d="M763.3,1370.4c-3.4,4.9-5.1,10.9-4.7,16.8c0.2,4.4,1.5,13,6.9,13.7c1.3,0.2,2-2.1,1.9-3
	c-0.4-3.9-2.6-6.8-3.8-10.5c-1.6-5.2-1.2-10.7,1-15.6C764.9,1371,764.1,1369.2,763.3,1370.4L763.3,1370.4z"/>
<path class="st0" d="M772.8,1379.5c-3.3,2.8-4.1,6-4.5,10.2c-0.4,2.1-0.5,4.2-0.3,6.3c0.3,1.9,1.7,5,4.1,4.5
	c1.2-0.3,2.1-1.4,2.2-2.6c0.4-3-0.4-6.2-3.1-7.7l1.6,1.7c-0.8-1.5-1.2-2.4-0.8-4.2c0.5-1.9,1.3-3.8,2.4-5.4
	C774.9,1381.2,774.3,1378.2,772.8,1379.5L772.8,1379.5z"/>
<path class="st0" d="M629,1083c-21.4,38.1-12.9,73.7,21.4,99.6c17.5,13.2,37.8,22.5,58.8,29c19.1,5.9,42.8,13.7,61.4,3.1
	c2.8-1.6,3-8.6-1-8.8c-17.4-0.9-33.1-0.6-50.3-5.3c-15.4-4.1-30.4-9.8-44.6-17.1c-14.5-7.7-30.2-17.8-40.4-30.9
	c-16-20.5-7.9-44.5-2.4-67.2C632.4,1083.9,630.4,1080.6,629,1083L629,1083z"/>
<path class="st0" d="M1234,1163.4c0,0-113.9-3.5-116.2,0s-2.3,24.4-2.3,24.4l7,31.4c0,0-7-27.9,24.4-38.3S1206.1,1173.9,1234,1163.4
	z"/>
<path class="st0" d="M1374,1085.5c5.4,22.4,13.5,46.5-2.4,66.6c-10.6,13.5-25.8,23.6-40.8,31.5c-13.3,6.9-27.4,12.4-41.8,16.3
	c-18.4,5.2-34.3,5-52.9,5.9c-4.1,0.2-3.2,7.3-0.6,8.8c18.7,10.5,42.4,2.8,61.5-3.2c21-6.6,41.1-15.8,58.7-29.1
	c34.4-25.9,42.2-61.5,21-99.5C1375.4,1080.4,1373.6,1084,1374,1085.5L1374,1085.5z"/>
<path class="st0" d="M779,1291.6c-13-22.5-22.8-57-10.3-82c1.1-2.3,1.1-9.9-3.4-8.2c-13.2,5.2-10.8,28.8-9.6,40
	c2,19.1,10.1,37.3,21.8,52.5C778.9,1295.5,779.6,1292.7,779,1291.6L779,1291.6z"/>
<path class="st0" d="M613,1230.5c1.5,6.3,2,12.8,1.6,19.2c-0.2,2.6,3.1,4.8,4.1,1.6c1.8-5.9,3.7-11.8,5.5-17.7l-4.5-1.7
	c-0.2,9-0.2,18-0.3,27c0,4.9,5.1,4.7,5.2-0.1c-0.3-5.9,0.9-11.8,3.5-17.1l-5-1.9c-0.5,8.6-1.9,17.2-4,25.6c-0.9,3.5,3.3,9.2,4.7,4
	c2.7-9.7,5.8-19.2,9.4-28.5l-4.7-2.8c-5.2,21.4-8.7,43.2-10.4,65.2l5,0.9c-0.7-21.5-1.5-43-2.2-64.4c-0.1-3.5-4.3-5.2-4.8-0.9
	c-1.8,15.4-2,31-0.7,46.4c0.4,4.8,4.8,4.6,5.1-0.1c1-17.1-0.6-34.2-4.7-50.8c-1.3-5.1-6-1.9-5,2.2c2.3,9.2,3.4,18.7,3.3,28.1
	l5.3-0.1c-0.1-11.3-1.2-22.7-3.2-33.8c-0.6-3.6-4.9-3.7-5.1,0.1c-0.9,13.7-0.1,26.7,3.8,39.8c1.1,3.8,4.2,1.4,3.7-1.7
	c-2.1-12.2-3.2-23.8-2.3-36.1l-5.1,0.1c1.9,10.5,2.9,21.1,3,31.7c0,5,5.3,4.8,5.3-0.1c0.1-10.2-1.1-20.3-3.6-30.2l-5,2.2
	c4,15.9,5.5,32.3,4.6,48.7l5.1-0.1c-1.5-14.8-1.4-29.7,0.2-44.4l-4.8-0.9c0.7,21.5,1.3,43,1.9,64.4c0.1,3.7,4.7,5.4,5,0.9
	c1.5-21.7,4.8-43.2,10.1-64.3c0.8-3.2-2.4-8.6-4.4-3.8c-3.8,9.2-7,18.7-9.6,28.3l4.7,4c2.5-9.7,4-19.7,4.6-29.7
	c0.2-3.3-3.5-5.7-5-1.9c-2.7,6.7-4.1,13.9-4,21.2l5.2-0.1c0-9,0-18-0.1-27c0-2.6-3.4-5.4-4.5-1.7c-1.7,6-3.5,12-5.2,18l4.1,1.6
	c0.2-7-0.7-13.9-2.8-20.6C615.3,1225.9,612.4,1227.9,613,1230.5L613,1230.5z"/>
<path class="st0" d="M1391.7,1228.5c-2.1,6.9-3,14-2.9,21.2l4.3-1c-1.7-6-3.5-12-5.2-17.9c-1.1-3.9-4.6-2.6-4.7,1.1
	c-0.1,9-0.1,18-0.1,27l5.2-0.1c0-7.3-1.4-14.5-4.1-21.2c-1.6-3.9-5.1-0.9-4.9,2.2c0.6,9.7,2.1,19.3,4.4,28.7l5.1-2.3
	c-2.7-9.9-6-19.7-9.9-29.3c-1.7-4.2-5.3,0-4.5,3c5.3,21,8.7,42.5,10.2,64.2c0.3,4.7,4.9,4.6,5.1-0.1c0.7-21.5,1.3-43,1.9-64.4
	l-4.8,0.1c1.7,14.7,1.8,29.6,0.4,44.4l5,0.9c-0.9-16.4,0.6-32.8,4.6-48.7l-5.1-2c-2.4,9.9-3.6,20.1-3.5,30.3c0,5,5.2,4.8,5.3-0.1
	c0.1-10.6,1.1-21.2,3-31.7l-5.2-1c0.7,12.5,0,25-2.2,37.3c-0.4,2.3,2.6,5.6,3.6,2.2c3.7-12.8,5.1-26.2,4-39.5
	c-0.3-3.9-4.4-5.7-5.2-1c-2,11.2-3.1,22.5-3.2,33.8l5.3-0.1c-0.1-9.5,1.1-18.9,3.3-28.1c1-4.2-3.8-7.1-5.1-2
	c-4.1,16.6-5.7,33.7-4.7,50.8c0.2,3.6,4.6,5.5,5.1,0.9c1.4-15.8,1.2-31.7-0.6-47.4c-0.5-4.3-4.6-2.4-4.7,1.1
	c-0.7,21.5-1.4,43-2.2,64.4l5.1-0.1c-1.7-22.3-5.3-44.4-10.5-66.2l-4.5,3c3.5,9.1,6.5,18.2,9.1,27.6c1.4,5.1,6.2,2,5.1-2.3
	c-2.2-8.7-3.6-17.6-4.2-26.5l-4.9,2.2c2.6,5.3,3.8,11.2,3.4,17.1c0.1,4.9,5.2,4.7,5.2-0.1c-0.1-9-0.1-18-0.3-27l-4.4,1.9
	c1.8,5.9,3.7,11.8,5.5,17.7c1,3.4,4.2,0.7,4-1.8c-0.4-6.4,0.1-12.9,1.6-19.2c0.5-2.1-2.3-4.8-3.1-1.9L1391.7,1228.5z"/>
<path class="st0" d="M953.2,1595.7c0,0,34.9,41.8,45.3,76.7c0,0,20.9-41.8,48.8-76.7c-12.5,11.3-28.5,18-45.3,19.2
	C977.6,1616.4,953.2,1595.7,953.2,1595.7z"/>
<path class="st0" d="M921.8,1790.9l99.4,8.7l68-5.2c0,0-20.9-34.9-68-36.6s-64.5,1.7-78.4,12.2S921.8,1790.9,921.8,1790.9z"/>
<path class="st0" d="M864.3,1773.5c0,0-81.9-101.1-109.8-125.5c0,0,87.2,76.7,115,115l-94.1-122L880,1752.6l-66.2-94.1l75,80.2
	l-43.6-73.2l52.3,62.8l-27.9-62.8l41.8,57.5L864.3,1773.5z"/>
<path class="st0" d="M1143.2,1773.5c0,0,81.9-101.1,109.8-125.5c0,0-87.2,76.7-115,115l94.1-122l-104.6,111.6l66.2-94.1l-75,80.2
	l43.6-73.2l-52.3,62.8l27.9-62.8l-41.8,57.5L1143.2,1773.5z"/>
<path class="st0" d="M702.2,1330.7c0-10.4-7-73.2,17.4-118.5H758c0,0-2.1,49.6,16.4,71.8s35.9,46.7,53.3,60.6s38.3,41.8,41.8,61
	l3.5,19.2l-27.9-15.7l-10.5-1.7c0,0-20.9-38.3-45.3-61s-38.3-59.3-45.3-74.1L738,1261c0,0-18.3,22.7-20,32.3l-13.1,41L702.2,1330.7z
	"/>
<path class="st0" d="M695.3,1281.9c0,0,0-54.6,20.9-74.4l-11.6-4.7C704.5,1202.9,684.8,1240.1,695.3,1281.9z"/>
<path class="st0" d="M690.6,1189c0,0-19.8,37.2-9.3,79c0,0,0-54.6,20.9-74.4L690.6,1189z"/>
<path class="st0" d="M676.6,1184.3c0,0-18.6,35-8.8,74.4c0,0,0-51.4,19.7-70L676.6,1184.3z"/>
<path class="st0" d="M660.5,1184.3c0,0-15.1,28.4-7.1,60.4c0,0,0-41.8,16-56.9L660.5,1184.3z"/>
<path class="st0" d="M646.6,1170.4c0,0-15.1,28.4-7.1,60.4c0,0,0-41.8,16-56.9L646.6,1170.4z"/>
<path class="st0" d="M632.6,1156.4c0,0-15.1,28.4-7.1,60.4c0,0,0-41.8,16-56.9L632.6,1156.4z"/>
<polygon class="st0" points="649.9,1264.5 643,1327.3 660.4,1268 670.8,1278.4 663.9,1358.6 682.5,1292.4 "/>
<polygon class="st0" points="691.8,1400.5 688.3,1302.8 702.2,1323.8 "/>
<polygon class="st0" points="993.3,861.8 988.1,919.4 979.4,861.8 970.7,908.9 961.9,860.1 953.2,901.9 946.3,860.1 935.8,895 
	928.8,856.6 921.8,884.5 907.9,856.6 "/>
<polygon class="st0" points="1016,861.8 1021.2,919.4 1029.9,861.8 1038.6,908.9 1047.3,860.1 1056.1,901.9 1063,860.1 1073.5,895 
	1080.5,856.6 1087.4,884.5 1101.4,856.6 "/>
<polygon class="st0" points="653.4,1501.6 660.4,1407.4 674.3,1564.3 "/>
<polygon class="st0" points="680.1,1489.9 680.1,1385.3 692.9,1459.7 698.7,1397 709.2,1431.8 686,1473.7 "/>
<polygon class="st0" points="1326.3,1489.9 1326.3,1385.3 1313.5,1459.7 1307.7,1397 1297.2,1431.8 1320.4,1473.7 "/>
<polygon class="st0" points="688.3,1532.9 696.4,1596.8 733.6,1646.8 705.7,1592.2 737.1,1623.6 716.2,1575.9 "/>
<path class="st0" d="M1050,1146.9c-2.6-10.6-16-79.6,1.9-79.3c4.5,0,5.1-6.8,4.6-9.8c-1-5.7-2.3-8.2-6.8-11.8
	c-1.7-1.3-4.2-2.1-6.3-1.1c-15,7.4-13.2,28.3-11.8,42.5c2.3,21.1,7.5,41.8,15.3,61.5C1048.1,1151.7,1050.5,1148.9,1050,1146.9
	L1050,1146.9z"/>
<path class="st0" d="M1260.6,1355.2c0.4,8.6-1,17.3-4.2,25.3c-2.5,6.2-6.2,11.8-7.7,18.2c-0.3,1.2,0.8,5.5,2.9,4.1
	c12.8-8.6,12.4-34.6,10.6-48C1262,1353.4,1260.6,1354,1260.6,1355.2L1260.6,1355.2z"/>
<path class="st0" d="M1248.5,1363.1c2.6,7.2,2.1,14.3,0,21.6c-1.5,4.8-4.3,9.1-5,14.1c-0.2,1.6,0.6,5.2,2.9,4.3
	c6.4-2.5,8.1-13.3,8.6-19.4c0.5-7.6-1.6-15.4-4.4-22.4c-0.9-2.3-2.6,0.3-2,1.9H1248.5z"/>
<path class="st0" d="M1239.5,1371.8c2.1,4.6,2.5,9.8,1.2,14.7c-1.1,3.7-3.5,6.8-3.9,10.7c-0.1,1.1,0.2,3.9,2,3.7
	c5.4-0.7,6.6-9.8,6.7-14.1c0.2-5.8-1.5-11.6-4.8-16.4C1240,1369.2,1239.2,1371.1,1239.5,1371.8L1239.5,1371.8z"/>
<path class="st0" d="M1229.9,1382.3c1.5,2.1,3.3,5.7,2.2,8.2c0.2-0.4,0-0.1-0.3,0.3c-0.5,0.6-0.9,1.2-1.2,1.9
	c-0.7,1.7-0.9,3.5-0.6,5.3c0.1,1.3,1,2.3,2.3,2.5c2.4,0.4,3.7-2.8,4-4.7c0.1-0.8,0.1-1.6-0.1-2.4c0,0.8,0,0.7,0.1-0.4
	c0-1-0.2-2-0.3-2.9c-0.4-4.3-1.3-7.7-4.7-10.6C1229.8,1378.2,1229.3,1381.4,1229.9,1382.3L1229.9,1382.3z"/>
<path class="st0" d="M1301.9,1330.7c0-10.4,7-73.2-17.4-118.5h-38.3c0,0,2.1,49.6-16.4,71.8s-35.9,46.7-53.3,60.6
	s-38.3,41.8-41.8,61l-3.5,19.2l27.9-15.7l10.5-1.7c0,0,20.9-38.3,45.3-61s38.3-59.3,45.3-74.1l6.1-11.3c0,0,18.3,22.7,20,32.3
	l13.1,41L1301.9,1330.7z"/>
<path class="st0" d="M1308.8,1281.9c0,0,0-54.6-20.9-74.4l11.6-4.7C1299.5,1202.9,1319.3,1240.1,1308.8,1281.9z"/>
<path class="st0" d="M1313.5,1189c0,0,19.8,37.2,9.3,79c0,0,0-54.6-20.9-74.4L1313.5,1189z"/>
<path class="st0" d="M1327.5,1184.3c0,0,18.6,35,8.8,74.4c0,0,0-51.4-19.7-70L1327.5,1184.3z"/>
<path class="st0" d="M1343.6,1184.3c0,0,15.1,28.4,7.1,60.4c0,0,0-41.8-16-56.9L1343.6,1184.3z"/>
<path class="st0" d="M1357.5,1170.4c0,0,15.1,28.4,7.1,60.4c0,0,0-41.8-16-56.9L1357.5,1170.4z"/>
<path class="st0" d="M1371.5,1156.4c0,0,15.1,28.4,7.1,60.4c0,0,0-41.8-16-56.9L1371.5,1156.4z"/>
<polygon class="st0" points="1357.7,1264.5 1364.6,1327.3 1347.2,1268 1336.7,1278.4 1343.7,1358.6 1325.1,1292.4 "/>
<polygon class="st0" points="1315.8,1400.5 1319.3,1302.8 1305.4,1323.8 "/>
<polygon class="st0" points="1350.7,1501.6 1343.7,1407.4 1329.8,1564.3 "/>
<polygon class="st0" points="1319.3,1532.9 1311.2,1596.8 1274,1646.8 1301.9,1592.2 1270.5,1623.6 1291.4,1575.9 "/>
<path class="st0" d="M565.3,1058.5c0,0,88.5-47.2,128.7-99.9c27.7-36.4,88.3-55.2,165.9-15.1s91,55.2,152.5,55.2
	c69.6,0,150.3-92.8,216.8-85.3c31.7,3.6,74.9,33,112.4,67.8c41.8,38.7,78.1,82.8,120.4,82.8l-22.9-165.7l-504.3-133l-325.6,62.9
	l-65.1,163L565.3,1058.5z"/>
<path class="st1" d="M992.9,751.3c0-9.4,8-17,18-17s18,7.6,18,17s-8,17-18,17S992.9,760.7,992.9,751.3z"/>
<path class="st1" d="M864.5,744.6c0-9.4,8-17,18-17s18,7.6,18,17s-8,17-18,17S864.5,754,864.5,744.6z"/>
<path class="st1" d="M736,734.4c0-9.4,8-17,18-17s18,7.6,18,17s-8,17-18,17S736,743.8,736,734.4z"/>
<path class="st1" d="M608.7,715.2c0-9.4,8-17,18-17s18,7.6,18,17s-8,17-18,17S608.7,724.6,608.7,715.2z"/>
<path class="st1" d="M1168,744.6c0-9.4-8-17-18-17s-18,7.6-18,17s8,17,18,17S1168,754,1168,744.6z"/>
<path class="st1" d="M1296.4,734.4c0-9.4-8-17-18-17s-18,7.6-18,17s8,17,18,17S1296.4,743.8,1296.4,734.4z"/>
<path class="st1" d="M1423.7,715.2c0-9.4-8-17-18-17s-18,7.6-18,17s8,17,18,17S1423.7,724.6,1423.7,715.2z"/>
<path class="st1" d="M537.5,736.2c0,0,32.1-164.1,74.9-233.5c0,0-45.8,170.8-47.5,243.5L537.5,736.2z"/>
<path class="st1" d="M1484.9,731.2c0,0-34.8-164.2-77.6-233.5c0,0,49,175.8,50.8,248.6L1484.9,731.2z"/>
<path class="st0" d="M1497.1,737.3c0,0-33.3,11.3-96.5,36c-59.7,23.4-306.9,44.8-389.6,44.8c-89.4,0-329.9-21.4-389.6-44.8
	c-63.2-24.7-96.5-36-96.5-36s-109.8,68-89.8,157.7c19.7,88.6,419.5,127.5,582.8,128.7c163.3-1.2,549.3-40.1,569-128.7
	C1606.9,805.4,1497.1,737.3,1497.1,737.3z"/>
<path class="st1" d="M1018,1030L1018,1030c-83.5-0.6-223-10.6-346.3-31.7C520,972.5,438.3,938.2,429,896.4
	c-8.6-38.7,4.8-79.5,38.8-118c15.8-17.8,33.9-33.4,53.8-46.4l2.5-1.5l2.8,1c0.3,0.1,34.1,11.6,96.7,36.1
	c59.7,23.4,299.5,44.3,387.4,44.3c86.1,0,330.9-22.3,387.4-44.3c62.6-24.5,96.4-36,96.7-36.1l2.8-1l2.5,1.5
	c19.9,13,38,28.6,53.8,46.4c34,38.5,47.4,79.3,38.8,118c-9.3,41.8-88.6,76.1-235.7,102C1237.4,1019.5,1100.5,1029.5,1018,1030
	L1018,1030z M525.8,744.2c-15.7,10.6-101.7,72.5-84.6,149.4c7.9,35.3,90.4,68.1,232.5,92.3c122,20.8,263.9,30.9,344.2,31.5
	c82-0.6,218-10.5,337.2-31.5c137.6-24.2,217.8-57,225.7-92.4c17.2-77.1-68.8-138.9-84.6-149.4c-9.3,3.3-41.3,14.6-93.3,35
	c-59.7,23.3-305.6,45.2-391.9,45.2c-88.7,0-331-21.4-391.9-45.2C567.1,758.8,535.1,747.5,525.8,744.2z"/>
<path class="st1" d="M489.4,883.3c8.8,31.4,101.5,52.3,101.5,52.3s-79.4-29.3-88.3-54.4s15.4-67,15.4-67S480.6,851.9,489.4,883.3z"
	/>
<path class="st1" d="M529.2,872.8c-8.8-25.1,15.5-67,15.5-67s-37.5,37.7-28.7,69.1s101.5,52.3,101.5,52.3S538,898,529.2,872.8z"/>
<path class="st1" d="M555.7,864.5c-8.8-25.1,15.5-67,15.5-67s-37.5,37.7-28.7,69.1S644,918.9,644,918.9S564.6,889.6,555.7,864.5z"/>
<path class="st1" d="M1435.1,935.7c0,0,92.7-20.9,101.5-52.3s-28.6-69.1-28.6-69.1s24.3,41.8,15.4,67S1435.1,935.7,1435.1,935.7z"/>
<path class="st1" d="M1510.1,874.9c8.8-31.4-28.7-69.1-28.7-69.1s24.3,41.8,15.4,67s-88.3,54.4-88.3,54.4S1501.3,906.3,1510.1,874.9
	z"/>
<path class="st1" d="M1382,918.9c0,0,92.7-20.9,101.5-52.3s-28.7-69.1-28.7-69.1s24.3,41.8,15.4,67S1382,918.9,1382,918.9z"/>
<path class="st1" d="M865.9,850.1c0,0,68.6,9.5,155.5,9.5s153.9-14.3,153.9-14.3s-61.9,25.4-153.9,25.4S865.9,850.1,865.9,850.1z"/>
<path class="st1" d="M842.7,876.2c0,0,78.9,10.9,178.9,10.9s177-16.4,177-16.4s-71.2,29.2-177,29.2S842.7,876.2,842.7,876.2z"/>
<path class="st1" d="M819.5,902.3c0,0,89.2,12.4,202.2,12.4s200-18.6,200-18.6s-80.4,33-200,33S819.5,902.3,819.5,902.3z"/>
<path class="st1" d="M796.3,928.4c0,0,99.4,13.8,225.5,13.8s223.1-20.7,223.1-20.7s-89.7,36.8-223.1,36.8S796.3,928.4,796.3,928.4z"
	/>
<path class="st1" d="M773,954.5c0,0,109.7,15.2,248.9,15.2s246.2-22.8,246.2-22.8s-99,40.6-246.2,40.6S773,954.5,773,954.5z"/>
<path class="st1" d="M1429.7,177.3c-22.1,87.2-108.9,319.7-414.7,332.3C709.2,497,621,264.5,598.8,177.3c-0.2-1.3-1.5-2.2-2.8-1.9
	c-1.3,0.2-2.2,1.5-1.9,2.8c36.8,430.4,350.4,448.4,418.3,448.4c70.8,0,385.2-18,422-448.4c0.1-1.3-0.9-2.5-2.2-2.6
	C1431.1,175.5,1430,176.2,1429.7,177.3z"/>
<path class="st0" d="M1012.4,632.9c-46.3,0-137-8.3-224.1-63.8c-52.5-33.5-95.6-79.3-128.2-136.1c-39.3-68.6-63.6-154.2-72.1-254.2
	c-0.5-4.8,3-9,7.8-9.5c0.3,0,0.6,0,0.9,0c4,0,7.4,2.7,8.3,6.6c24,94.4,111.9,315.1,410.1,327.6c296.9-12.4,384.7-233.2,408.6-327.6
	c0.9-3.9,4.4-6.6,8.3-6.6c4.8,0,8.7,3.9,8.7,8.7c0,0.3,0,0.6,0,0.9c-8.6,100.1-32.9,185.6-72.3,254.2
	c-32.7,56.9-76,102.7-128.8,136.1C1151.9,624.6,1059.6,632.9,1012.4,632.9z M604.9,218.8c50.3,371.9,322.8,401.6,407.5,401.6
	c85.6,0,360.7-29.8,411.2-401.4c-15.4,44.3-42.9,103.2-90.2,156.6c-77.8,87.6-184.8,134.8-318.1,140.3h-0.5
	c-133.4-5.5-240.7-52.7-318.9-140.3C648,321.9,620.3,263,604.9,218.8z"/>
<path class="st0" d="M635.3,301.9c-4.4,17-5.7,34.6-3.9,52.1c1.7,15.9,5.7,36.8,16.7,49.2c3,3.4,3-6.2,2.5-7.5
	c-5-14.5-11.4-28-14-43.3c-2.8-15.9-2.6-32.2,0.5-48C637.5,302.9,636.2,298.8,635.3,301.9L635.3,301.9z"/>
<path class="st0" d="M648.5,339.3c-2,20.5-0.7,41.2,3.7,61.4c4.1,18.8,11,42.6,24.7,56.9c3,3.1,3.1-6,2.5-7.4
	c-7.5-17.7-16.6-33.9-21.9-52.6c-5.3-18.8-7.7-38.3-7.2-57.8C650.3,338,648.7,336.8,648.5,339.3z"/>
<path class="st0" d="M667.5,362c0.7,24.8,2.4,49.7,8.4,73.9c5.1,20.5,14.3,47.3,32.2,60.3c2.9,2.1,2.3-7.4,1.6-8.6
	c-11.5-19.4-22.7-37.3-29.7-59.1c-6.8-21.5-9.9-44.1-10.8-66.6C669.1,359.7,667.4,359.6,667.5,362L667.5,362z"/>
<path class="st0" d="M694,388.9c-2.4,27.3,0.2,56.8,8.1,83.1c4.1,13.8,9.7,27.1,16.7,39.6c6,10.7,13,23.7,23.5,30.7
	c3.5,2.3,3.4-8.6,2.6-10.1c-6-10.8-13.9-20.5-20.1-31.3c-6.2-10.9-11.6-22.3-15.9-34.1c-9.4-24.6-13.8-50.9-12.8-77.3
	C696.1,387.6,694.3,386.3,694,388.9z"/>
<path class="st0" d="M719.8,424.7c-1,27.5,4.4,54.8,14.3,80.4c8.9,22.9,24,52.2,46.3,64.7c3.4,1.9,2.8-8,1.7-9.4
	c-14.9-20.3-30.9-38.2-42-61.1c-11.3-23.4-17-48.8-18.3-74.6C721.6,422,719.9,422,719.8,424.7L719.8,424.7z"/>
<path class="st0" d="M748.7,455.2c0.5,23.7,5.8,46.5,14.3,68.6c4.2,11.1,9.5,21.7,15.8,31.8c5.8,9.2,12.7,20.7,22.3,26.4
	c3.9,2.3,2.9-9,1.9-10.5c-5.7-9.2-13.3-17.3-19.4-26.2c-5.9-8.7-11.2-17.9-15.7-27.4c-9.4-19.9-14.4-41.6-16.8-63.4
	C750.8,451.3,748.7,452.7,748.7,455.2L748.7,455.2z"/>
<path class="st0" d="M782.2,476c-1.2,22.8,1.4,46,8.9,67.6c3.7,10.5,8.5,20.6,14.3,30.2c5.3,8.8,12.4,20.9,22.1,25.3
	c4.5,2,3-9.4,2-11.1c-4.9-8.5-11.8-15.7-17.4-23.8c-5.8-8.6-10.8-17.7-14.8-27.2c-8.3-19.5-13-39.9-12.7-61.1
	C784.6,472.7,782.3,472.7,782.2,476L782.2,476z"/>
<path class="st0" d="M816.8,507.3c2.5,26.3,7.3,51.1,20.3,74.4c5.5,10,12.2,19.4,20,27.8c7,7.5,15.8,16.7,26.3,18.7
	c3.1,0.6,2.1-8,1.1-9.3c-6.8-8.3-15.5-14.8-22.8-22.5c-7.1-7.5-13.5-15.6-19.1-24.4c-12.8-20.2-19.4-43.1-23-66.6
	C819,501,816.5,504.4,816.8,507.3L816.8,507.3z"/>
<path class="st0" d="M858.2,522.8c-4,18.2-1.1,38.9,4.9,56.3c5.3,15.4,17.3,41,34.9,45.3c3.7,0.9,2.5-9.8,1.3-11.2
	c-4.9-6.5-11.3-11.7-16.6-18c-5.3-6.3-9.8-13.2-13.5-20.6c-8-16.4-9.8-32.5-8.9-50.6C860.4,522.6,858.8,520.1,858.2,522.8
	L858.2,522.8z"/>
<path class="st0" d="M899.7,536.1c-2.8,18.3-1.3,37.1,4.4,54.7c4.7,14.5,14.7,37.9,30.7,43.1c4.3,1.4,3.3-8.7,2-10.5
	c-8.9-12.6-19.8-22.5-26.6-36.7c-7.3-15.2-10.1-32.2-8-48.9C902.5,535.1,900.3,532.2,899.7,536.1L899.7,536.1z"/>
<path class="st0" d="M939.5,546c-3.2,17.6,1.2,34.6,7.3,51.1c3.7,9.6,8.1,19,13,28c3.1,5.8,7.4,15.1,14.9,15.2
	c3.6,0,2.4-8.5,1.2-10.2c-3.9-5.6-8.6-10.2-12.3-16.1c-3.8-6.1-7.4-12.2-10.9-18.5c-8.2-15.2-13.6-30.6-11.1-48.2
	C941.9,545.1,940,542.7,939.5,546L939.5,546z"/>
<path class="st0" d="M982.9,548.9c-1.9,19.9-0.4,40,4.3,59.4c2,7.8,11.7,42.4,25.6,31.2c2-1.7,2.9-9,0-10.3
	c-13-5.8-16.8-16.9-21.2-29.9c-5.2-15.7-7.3-32.2-6.1-48.7C985.8,547.8,983.3,544.6,982.9,548.9L982.9,548.9z"/>
<path class="st0" d="M1392.3,304.4c3.1,15.8,3.3,32.1,0.5,48c-2.7,15.3-9,28.8-14,43.3c-0.5,1.4-0.4,10.8,2.5,7.5
	c10.9-12.4,15-33.2,16.7-49.2c1.8-17.5,0.5-35.1-3.9-52.1C1393.3,298.8,1392,302.9,1392.3,304.4L1392.3,304.4z"/>
<path class="st0" d="M1379.2,339.8c0.5,19.5-1.9,39-7.2,57.8c-5.3,18.6-14.4,34.9-21.9,52.6c-0.6,1.5-0.5,10.5,2.5,7.4
	c13.7-14.3,20.6-38,24.7-56.9c4.4-20.2,5.6-40.9,3.7-61.4C1380.8,336.9,1379.1,337.9,1379.2,339.8L1379.2,339.8z"/>
<path class="st0" d="M1360.2,362c-0.9,22.5-4,45.1-10.8,66.6c-6.9,21.7-18.1,39.7-29.6,59.1c-0.8,1.3-1.2,10.6,1.6,8.6
	c17.8-13,27.1-39.8,32.2-60.3c5.9-24.2,7.8-49.1,8.4-73.9C1362,359.7,1360.3,359.7,1360.2,362z"/>
<path class="st0" d="M1333.4,389.5c1,26.4-3.4,52.7-12.8,77.3c-4.4,11.8-9.7,23.2-15.9,34.1c-6.2,10.7-14.1,20.5-20.1,31.3
	c-0.8,1.5-0.9,12.4,2.6,10.1c10.4-7,17.4-20,23.5-30.7c7-12.5,12.6-25.8,16.7-39.6c7.8-26.2,10.4-55.8,8.1-83.1
	C1335.2,386.4,1333.4,387.5,1333.4,389.5L1333.4,389.5z"/>
<path class="st0" d="M1307.7,424.7c-1.3,25.8-7,51.2-18.3,74.6c-11.1,23-27.1,40.8-42,61.1c-1.1,1.5-1.6,11.3,1.8,9.4
	c22.2-12.5,37.4-41.8,46.3-64.7c9.9-25.6,15.3-52.9,14.3-80.4C1309.6,422,1307.8,422,1307.7,424.7L1307.7,424.7z"/>
<path class="st0" d="M1278.3,454.5c-2.4,21.8-7.4,43.5-16.8,63.4c-4.5,9.5-9.8,18.7-15.8,27.4c-6.1,9-13.7,17-19.4,26.2
	c-1,1.6-1.8,12.7,1.9,10.5c9.6-5.7,16.5-17.2,22.3-26.4c6.3-10.1,11.6-20.7,15.8-31.8c8.5-22.1,13.8-44.9,14.3-68.6
	C1280.7,452.8,1278.7,451.2,1278.3,454.5L1278.3,454.5z"/>
<path class="st0" d="M1244.8,476c0.3,21.2-4.4,41.6-12.7,61.1c-3.8,9.1-8.5,17.8-14,26c-5.7,8.5-13,16.1-18.2,24.9
	c-1,1.7-2.4,13.1,2.1,11.1c9.3-4.3,16.1-15.7,21.3-24.1c6.1-9.9,11.2-20.4,15-31.4c7.6-21.7,10.1-44.8,8.9-67.6
	C1247.1,472.7,1244.8,472.6,1244.8,476L1244.8,476z"/>
<path class="st0" d="M1209.8,505.5c-3.6,23.5-10.2,46.3-23,66.6c-5.3,8.3-11.4,16.2-18.1,23.4c-7.6,8.1-16.7,14.9-23.8,23.5
	c-1.1,1.3-2,9.9,1.1,9.3c10.5-2.1,19.2-11.2,26.3-18.7c7.8-8.4,14.5-17.8,20-27.8c13-23.3,17.8-48.1,20.3-74.4
	C1212.9,504.4,1210.5,501,1209.8,505.5L1209.8,505.5z"/>
<path class="st0" d="M1169.1,524.2c0.8,18-0.9,34.2-8.9,50.6c-3.4,7-7.7,13.6-12.6,19.6c-5.5,6.6-12.2,12.1-17.4,19
	c-1.2,1.5-2.3,12.1,1.3,11.2c17.6-4.3,29.6-29.9,34.9-45.3c6-17.4,8.9-38.2,4.9-56.3C1170.6,520.2,1169,522.7,1169.1,524.2
	L1169.1,524.2z"/>
<path class="st0" d="M1127.3,537.7c2.1,16.7-0.7,33.7-8,48.9c-6.8,14.2-17.7,24.1-26.6,36.7c-1.3,1.9-2.3,11.9,2,10.5
	c15.9-5.2,25.9-28.6,30.7-43.1c5.7-17.6,7.2-36.4,4.4-54.7C1129.1,532.2,1127,535.1,1127.3,537.7L1127.3,537.7z"/>
<path class="st0" d="M1087.9,547.3c2.5,17.6-2.9,33-11.1,48.2c-3.4,6.3-7,12.5-10.8,18.5c-3.7,5.8-8.4,10.5-12.3,16.1
	c-1.2,1.7-2.4,10.2,1.2,10.2c7.4-0.1,11.8-9.4,14.9-15.2c4.9-9,9.3-18.4,13-28c6.1-16.5,10.4-33.5,7.3-51.1
	C1089.3,542.7,1087.5,545.1,1087.9,547.3L1087.9,547.3z"/>
<path class="st0" d="M1043.8,550.6c1.2,16.5-0.9,33-6.1,48.7c-4.3,12.9-8.2,24.2-21.2,29.9c-2.9,1.3-2,8.7,0,10.3
	c13.9,11.2,23.6-23.4,25.6-31.2c4.8-19.4,6.2-39.5,4.3-59.4C1046.1,544.6,1043.6,547.8,1043.8,550.6L1043.8,550.6z"/>
<circle class="st1" cx="1003.1" cy="577.4" r="107.5"/>
<path class="st1" d="M1003.1,671.3c-51.9,0-93.9-42.1-93.8-93.9c0-51.9,42.1-93.9,93.9-93.8c51.8,0,93.8,42.1,93.8,93.9
	C1096.9,629.2,1054.9,671.2,1003.1,671.3z"/>
<path d="M1003.1,674.7c-53.7,0-97.3-43.6-97.3-97.3s43.6-97.3,97.3-97.3c53.7,0,97.3,43.6,97.3,97.3c0,0,0,0,0,0
	C1100.3,631.1,1056.8,674.6,1003.1,674.7z M1003.1,486.9c-50,0-90.5,40.5-90.5,90.5c0,50,40.5,90.5,90.5,90.5
	c50,0,90.5-40.5,90.5-90.5c0,0,0,0,0,0C1093.5,527.4,1053,487,1003.1,486.9z"/>
<path class="st0" d="M1003.1,452.8c-68.8,0-124.6,55.8-124.6,124.6c0,68.8,55.8,124.6,124.6,124.6c68.8,0,124.6-55.8,124.6-124.6
	c0,0,0,0,0,0C1127.6,508.6,1071.8,452.8,1003.1,452.8z M1003.1,684.9c-59.4,0-107.5-48.2-107.5-107.5c0-59.4,48.2-107.6,107.5-107.6
	s107.5,48.2,107.5,107.6l0,0C1110.5,636.8,1062.4,684.9,1003.1,684.9z"/>
<path class="st0" d="M1009.4,568.8c12.3-8.8,21.4-19.7,23.2-35.4c1.6-13.6-3.9-28.3-15-36.6c-22.9-17-53.1,8-42.3,33.9
	c0.5,1.1,1.8,3.1,3.3,2.8c19-4.3,37.3,13.9,24.5,31.8c-2.8,3.9,1.4,13.5,5.5,7.9c16.3-22.3-1-57.8-30.2-51.1l3.3,2.8
	c-3.6-8.5,3.2-17.3,10.7-20.8c8.7-4.1,18.4-0.9,25,5.6c16.5,16.3,5.2,41.6-10,54.5C1005.8,565.5,1006.9,570.6,1009.4,568.8
	L1009.4,568.8z"/>
<path class="st0" d="M996.7,586c-12.3,8.8-21.4,19.7-23.3,35.4c-1.6,13.6,3.9,28.3,15,36.6c22.9,17,53.1-8.1,42.3-33.9
	c-0.5-1.1-1.8-3.1-3.3-2.8c-19,4.3-37.3-13.9-24.5-31.8c2.8-3.9-1.4-13.5-5.5-7.9c-16.3,22.3,1,57.8,30.2,51.1l-3.3-2.8
	c3.6,8.5-3.2,17.3-10.7,20.8c-8.7,4.1-18.4,0.9-25-5.6c-16.5-16.3-5.2-41.6,10-54.5c1.7-1.5,0.5-6.6-2-4.8L996.7,586z"/>
<path class="st0" d="M993.3,570c-9-12.3-19.8-22.5-35.8-24.2c-13.6-1.2-26.7,5.2-34.1,16.6c-6.6,10.4-6.9,24,0.1,34.3
	c6.9,10,19.4,15.5,31,10.7c2.5-1,3-4.9,2.5-7.1c-4.7-20.8,20.5-32,36.1-20.8c5,3.6,7.3-7.2,3.5-9.9c-10.5-7.7-24.6-8.6-35.3-0.7
	S947,591,949.8,603.5l2.5-7.1c-8.7,3.7-18.4-0.3-23.6-7.9c-6.1-9.1-1-19.3,6.8-25.3c17.1-13.4,42.4-4.4,55.3,10.8
	C993.1,576.6,994.7,571.9,993.3,570L993.3,570z"/>
<path class="st0" d="M1012.8,584.8c9,12.3,19.8,22.5,35.8,24.2c13.6,1.2,26.7-5.1,34.1-16.6c6.6-10.4,6.9-24-0.1-34.3
	c-6.9-10-19.4-15.5-31-10.7c-2.5,1-3,4.9-2.5,7.1c4.7,20.8-20.5,32-36.1,20.8c-5-3.6-7.3,7.1-3.5,9.9c10.5,7.7,24.6,8.6,35.3,0.7
	s14.3-22.1,11.4-34.6c-0.8,2.4-1.6,4.7-2.4,7.1c8.7-3.7,18.4,0.3,23.6,7.9c6.1,9.1,1,19.3-6.8,25.3c-17.1,13.4-42.4,4.4-55.3-10.8
	C1013,578.1,1011.4,582.9,1012.8,584.8L1012.8,584.8z"/>
<path class="st0" d="M977.5,577.4c0-14.1,11.5-25.6,25.6-25.6c14.1,0,25.6,11.5,25.6,25.6c0,14.1-11.5,25.6-25.6,25.6
	C988.9,603,977.5,591.5,977.5,577.4z"/>
</svg>
